<?xml version="1.0" encoding="UTF-8" standalone="no"?>
<!-- Created with Inkscape (http://www.inkscape.org/) -->

<svg
   xmlns:dc="http://purl.org/dc/elements/1.1/"
   xmlns:cc="http://creativecommons.org/ns#"
   xmlns:rdf="http://www.w3.org/1999/02/22-rdf-syntax-ns#"
   xmlns:svg="http://www.w3.org/2000/svg"
   xmlns="http://www.w3.org/2000/svg"
   xmlns:xlink="http://www.w3.org/1999/xlink"
   xmlns:sodipodi="http://sodipodi.sourceforge.net/DTD/sodipodi-0.dtd"
   xmlns:inkscape="http://www.inkscape.org/namespaces/inkscape"
   width="117"
   height="25"
   id="svg5840"
   version="1.1"
   inkscape:version="0.48.0 r9654"
   sodipodi:docname="community.svg">
  <defs
     id="defs5842">
    <linearGradient
       id="linearGradient7024">
      <stop
         style="stop-color:#fffdff;stop-opacity:1;"
         offset="0"
         id="stop7026" />
      <stop
         id="stop7028"
         offset="0.64915252"
         style="stop-color:#e9e9dc;stop-opacity:0.47008547;" />
      <stop
         style="stop-color:#ebe9eb;stop-opacity:0.47843137;"
         offset="1"
         id="stop7030" />
    </linearGradient>
    <linearGradient
       id="linearGradient6835-8">
      <stop
         id="stop6837-0"
         offset="0"
         style="stop-color:#fffdff;stop-opacity:1;" />
      <stop
         style="stop-color:#e9e9dc;stop-opacity:0.47008547;"
         offset="0.55885547"
         id="stop6839-2" />
      <stop
         id="stop6841-6"
         offset="1"
         style="stop-color:#ebe9eb;stop-opacity:0.47843137;" />
    </linearGradient>
    <linearGradient
       gradientTransform="matrix(0.59809784,0,0,0.59809784,-52.612662,120.62528)"
       gradientUnits="userSpaceOnUse"
       y2="845.75171"
       x2="22.549107"
       y1="525.45105"
       x1="25.572601"
       id="linearGradient7014"
       xlink:href="#linearGradient6835-8"
       inkscape:collect="always" />
    <linearGradient
       id="linearGradient6835-3">
      <stop
         id="stop6837-8"
         offset="0"
         style="stop-color:#fffdff;stop-opacity:1;" />
      <stop
         style="stop-color:#e9e9dc;stop-opacity:0.47008547;"
         offset="0.55885547"
         id="stop6839-4" />
      <stop
         id="stop6841-8"
         offset="1"
         style="stop-color:#ebe9eb;stop-opacity:0.47843137;" />
    </linearGradient>
    <linearGradient
       id="linearGradient6835">
      <stop
         id="stop6837"
         offset="0"
         style="stop-color:#fffdff;stop-opacity:1;" />
      <stop
         style="stop-color:#e9e9dc;stop-opacity:0.47008547;"
         offset="0.55885547"
         id="stop6839" />
      <stop
         id="stop6841"
         offset="1"
         style="stop-color:#ebe9eb;stop-opacity:0.47843137;" />
    </linearGradient>
    <linearGradient
       y2="249.35298"
       x2="92.939377"
       y1="249.34906"
       x1="76.456871"
       gradientTransform="matrix(0.19058704,0,0,0.112979,0.83290399,1003.5229)"
       gradientUnits="userSpaceOnUse"
       id="linearGradient5702"
       xlink:href="#linearGradient3638"
       inkscape:collect="always" />
    <radialGradient
       r="3.9206693"
       fy="945.2356"
       fx="14.12672"
       cy="945.2356"
       cx="14.12672"
       gradientTransform="matrix(-8.0043216e-4,2.1784548,-1.6211127,-6.4532131e-4,1547.0441,1002.1462)"
       gradientUnits="userSpaceOnUse"
       id="radialGradient5700"
       xlink:href="#linearGradient4694"
       inkscape:collect="always" />
    <linearGradient
       id="linearGradient4694">
      <stop
         id="stop4696"
         offset="0"
         style="stop-color:#ffffff;stop-opacity:1;" />
      <stop
         style="stop-color:#ffffff;stop-opacity:1;"
         offset="0.74319494"
         id="stop4712" />
      <stop
         id="stop4698"
         offset="1"
         style="stop-color:#b4b4b4;stop-opacity:1;" />
    </linearGradient>
    <radialGradient
       gradientUnits="userSpaceOnUse"
       gradientTransform="matrix(-8.0043216e-4,2.1784548,-1.6211127,-6.4532131e-4,1547.0441,1002.1462)"
       r="3.9206693"
       fy="945.2356"
       fx="14.12672"
       cy="945.2356"
       cx="14.12672"
       id="radialGradient4710"
       xlink:href="#linearGradient4694"
       inkscape:collect="always" />
    <linearGradient
       id="linearGradient3638">
      <stop
         id="stop3640"
         offset="0"
         style="stop-color:#e5bd00;stop-opacity:1;" />
      <stop
         id="stop3642"
         offset="1"
         style="stop-color:#665400;stop-opacity:1;" />
    </linearGradient>
    <linearGradient
       gradientTransform="matrix(0.19058704,0,0,0.112979,0.83290399,1003.5229)"
       gradientUnits="userSpaceOnUse"
       y2="249.35298"
       x2="92.939377"
       y1="249.34906"
       x1="76.456871"
       id="linearGradient3646"
       xlink:href="#linearGradient3638"
       inkscape:collect="always" />
    <inkscape:perspective
       sodipodi:type="inkscape:persp3d"
       inkscape:vp_x="0 : 0.5 : 1"
       inkscape:vp_y="0 : 1000 : 0"
       inkscape:vp_z="1 : 0.5 : 1"
       inkscape:persp3d-origin="0.5 : 0.33333333 : 1"
       id="perspective5602" />
    <inkscape:perspective
       id="perspective5635"
       inkscape:persp3d-origin="372.04724 : 350.78739 : 1"
       inkscape:vp_z="744.09448 : 526.18109 : 1"
       inkscape:vp_y="0 : 1000 : 0"
       inkscape:vp_x="0 : 526.18109 : 1"
       sodipodi:type="inkscape:persp3d" />
    <linearGradient
       inkscape:collect="always"
       xlink:href="#linearGradient7024"
       id="linearGradient9754"
       gradientUnits="userSpaceOnUse"
       gradientTransform="matrix(0.21229679,0,0,0.21229679,57.040385,935.19801)"
       x1="71.44149"
       y1="455.69241"
       x2="70.186775"
       y2="676.86401" />
    <linearGradient
       y2="249.35298"
       x2="92.939377"
       y1="249.34906"
       x1="76.456871"
       gradientTransform="matrix(0.19058704,0,0,0.112979,0.83290399,1003.5229)"
       gradientUnits="userSpaceOnUse"
       id="linearGradient5702-2"
       xlink:href="#linearGradient3638-3"
       inkscape:collect="always" />
    <radialGradient
       r="3.9206693"
       fy="945.2356"
       fx="14.12672"
       cy="945.2356"
       cx="14.12672"
       gradientTransform="matrix(-8.0043216e-4,2.1784548,-1.6211127,-6.4532131e-4,1547.0441,1002.1462)"
       gradientUnits="userSpaceOnUse"
       id="radialGradient5700-3"
       xlink:href="#linearGradient4694-0"
       inkscape:collect="always" />
    <linearGradient
       id="linearGradient4694-0">
      <stop
         id="stop4696-4"
         offset="0"
         style="stop-color:#ffffff;stop-opacity:1;" />
      <stop
         style="stop-color:#ffffff;stop-opacity:1;"
         offset="0.74319494"
         id="stop4712-6" />
      <stop
         id="stop4698-0"
         offset="1"
         style="stop-color:#b4b4b4;stop-opacity:1;" />
    </linearGradient>
    <radialGradient
       gradientUnits="userSpaceOnUse"
       gradientTransform="matrix(-8.0043216e-4,2.1784548,-1.6211127,-6.4532131e-4,1547.0441,1002.1462)"
       r="3.9206693"
       fy="945.2356"
       fx="14.12672"
       cy="945.2356"
       cx="14.12672"
       id="radialGradient4710-8"
       xlink:href="#linearGradient4694-0"
       inkscape:collect="always" />
    <linearGradient
       id="linearGradient3638-3">
      <stop
         id="stop3640-8"
         offset="0"
         style="stop-color:#e5bd00;stop-opacity:1;" />
      <stop
         id="stop3642-4"
         offset="1"
         style="stop-color:#665400;stop-opacity:1;" />
    </linearGradient>
    <linearGradient
       gradientTransform="matrix(0.19058704,0,0,0.112979,0.83290399,1003.5229)"
       gradientUnits="userSpaceOnUse"
       y2="249.35298"
       x2="92.939377"
       y1="249.34906"
       x1="76.456871"
       id="linearGradient3646-1"
       xlink:href="#linearGradient3638-3"
       inkscape:collect="always" />
    <inkscape:perspective
       sodipodi:type="inkscape:persp3d"
       inkscape:vp_x="0 : 0.5 : 1"
       inkscape:vp_y="0 : 1000 : 0"
       inkscape:vp_z="1 : 0.5 : 1"
       inkscape:persp3d-origin="0.5 : 0.33333333 : 1"
       id="perspective5602-7" />
    <inkscape:perspective
       id="perspective5635-4"
       inkscape:persp3d-origin="372.04724 : 350.78739 : 1"
       inkscape:vp_z="744.09448 : 526.18109 : 1"
       inkscape:vp_y="0 : 1000 : 0"
       inkscape:vp_x="0 : 526.18109 : 1"
       sodipodi:type="inkscape:persp3d" />
    <linearGradient
       y2="249.35298"
       x2="92.939377"
       y1="249.34906"
       x1="76.456871"
       gradientTransform="matrix(0.19058704,0,0,0.112979,0.83290399,1003.5229)"
       gradientUnits="userSpaceOnUse"
       id="linearGradient5702-7"
       xlink:href="#linearGradient3638-8"
       inkscape:collect="always" />
    <radialGradient
       r="3.9206693"
       fy="945.2356"
       fx="14.12672"
       cy="945.2356"
       cx="14.12672"
       gradientTransform="matrix(-8.0043216e-4,2.1784548,-1.6211127,-6.4532131e-4,1547.0441,1002.1462)"
       gradientUnits="userSpaceOnUse"
       id="radialGradient5700-0"
       xlink:href="#linearGradient4694-8"
       inkscape:collect="always" />
    <linearGradient
       id="linearGradient4694-8">
      <stop
         id="stop4696-2"
         offset="0"
         style="stop-color:#ffffff;stop-opacity:1;" />
      <stop
         style="stop-color:#ffffff;stop-opacity:1;"
         offset="0.74319494"
         id="stop4712-0" />
      <stop
         id="stop4698-9"
         offset="1"
         style="stop-color:#b4b4b4;stop-opacity:1;" />
    </linearGradient>
    <radialGradient
       gradientUnits="userSpaceOnUse"
       gradientTransform="matrix(-8.0043216e-4,2.1784548,-1.6211127,-6.4532131e-4,1547.0441,1002.1462)"
       r="3.9206693"
       fy="945.2356"
       fx="14.12672"
       cy="945.2356"
       cx="14.12672"
       id="radialGradient4710-85"
       xlink:href="#linearGradient4694-8"
       inkscape:collect="always" />
    <linearGradient
       id="linearGradient3638-8">
      <stop
         id="stop3640-4"
         offset="0"
         style="stop-color:#e5bd00;stop-opacity:1;" />
      <stop
         id="stop3642-2"
         offset="1"
         style="stop-color:#665400;stop-opacity:1;" />
    </linearGradient>
    <linearGradient
       gradientTransform="matrix(0.19058704,0,0,0.112979,0.83290399,1003.5229)"
       gradientUnits="userSpaceOnUse"
       y2="249.35298"
       x2="92.939377"
       y1="249.34906"
       x1="76.456871"
       id="linearGradient3646-5"
       xlink:href="#linearGradient3638-8"
       inkscape:collect="always" />
    <inkscape:perspective
       sodipodi:type="inkscape:persp3d"
       inkscape:vp_x="0 : 0.5 : 1"
       inkscape:vp_y="0 : 1000 : 0"
       inkscape:vp_z="1 : 0.5 : 1"
       inkscape:persp3d-origin="0.5 : 0.33333333 : 1"
       id="perspective5602-71" />
    <inkscape:perspective
       id="perspective5635-3"
       inkscape:persp3d-origin="372.04724 : 350.78739 : 1"
       inkscape:vp_z="744.09448 : 526.18109 : 1"
       inkscape:vp_y="0 : 1000 : 0"
       inkscape:vp_x="0 : 526.18109 : 1"
       sodipodi:type="inkscape:persp3d" />
    <radialGradient
       r="3.9206693"
       fy="945.2356"
       fx="14.12672"
       cy="945.2356"
       cx="14.12672"
       gradientTransform="matrix(-8.736316e-4,2.3776743,-1.7693633,-7.0433588e-4,1687.8339,998.15866)"
       gradientUnits="userSpaceOnUse"
       id="radialGradient5687"
       xlink:href="#linearGradient4694-8-7"
       inkscape:collect="always" />
    <linearGradient
       id="linearGradient4694-8-7">
      <stop
         id="stop4696-1"
         offset="0"
         style="stop-color:#ffffff;stop-opacity:1;" />
      <stop
         style="stop-color:#ffffff;stop-opacity:1;"
         offset="0.74319494"
         id="stop4712-8" />
      <stop
         id="stop4698-3"
         offset="1"
         style="stop-color:#b4b4b4;stop-opacity:1;" />
    </linearGradient>
    <linearGradient
       y2="249.35298"
       x2="92.939377"
       y1="249.34906"
       x1="76.456871"
       gradientTransform="matrix(0.20801621,0,0,0.12331092,0.22185741,999.66126)"
       gradientUnits="userSpaceOnUse"
       id="linearGradient5683"
       xlink:href="#linearGradient3638-2"
       inkscape:collect="always" />
    <linearGradient
       id="linearGradient3638-2">
      <stop
         id="stop3640-0"
         offset="0"
         style="stop-color:#e5bd00;stop-opacity:1;" />
      <stop
         id="stop3642-0"
         offset="1"
         style="stop-color:#665400;stop-opacity:1;" />
    </linearGradient>
    <linearGradient
       inkscape:collect="always"
       xlink:href="#linearGradient3638-2"
       id="linearGradient13351"
       gradientUnits="userSpaceOnUse"
       gradientTransform="matrix(0.11917022,0,0,0.07064348,6.6337793,1041.1933)"
       x1="76.456871"
       y1="249.34906"
       x2="92.939377"
       y2="249.35298" />
    <radialGradient
       inkscape:collect="always"
       xlink:href="#linearGradient4694-8-7"
       id="radialGradient13355"
       gradientUnits="userSpaceOnUse"
       gradientTransform="matrix(-5.0049403e-4,1.3621437,-1.013649,-4.0350636e-4,973.44834,1040.3324)"
       cx="14.12672"
       cy="945.2356"
       fx="14.12672"
       fy="945.2356"
       r="3.9206693" />
  </defs>
  <sodipodi:namedview
     id="base"
     pagecolor="#ffffff"
     bordercolor="#666666"
     borderopacity="1.0"
     inkscape:pageopacity="0.0"
     inkscape:pageshadow="2"
     inkscape:zoom="4.441237"
     inkscape:cx="37.01381"
     inkscape:cy="-2.101804"
     inkscape:document-units="px"
     inkscape:current-layer="layer1"
     showgrid="false"
     inkscape:window-width="1280"
     inkscape:window-height="712"
     inkscape:window-x="0"
     inkscape:window-y="22"
     inkscape:window-maximized="0"
     inkscape:snap-global="true" />
  <metadata
     id="metadata5845">
    <rdf:RDF>
      <cc:Work
         rdf:about="">
        <dc:format>image/svg+xml</dc:format>
        <dc:type
           rdf:resource="http://purl.org/dc/dcmitype/StillImage" />
        <dc:title />
      </cc:Work>
    </rdf:RDF>
  </metadata>
  <g
     inkscape:groupmode="layer"
     id="layer2"
     inkscape:label="Layer"
     style="display:none"
     sodipodi:insensitive="true"
     transform="translate(0,-1027.3622)">
    <image
       y="167.71935"
       x="84.928543"
       id="image5942"
       xlink:href="file:///Users/mattias/Desktop/Screen%20shot%202010-10-19%20at%2016.17.55.png"
       height="335"
       width="493" />
  </g>
  <g
     inkscape:label="Layer 1"
     inkscape:groupmode="layer"
     id="layer1"
     transform="translate(0,-1027.3622)">
    <g
       id="g9703"
       transform="translate(-426.01182,804.87003)">
      <rect
         ry="4.8333259"
         y="177.98648"
         x="434.24896"
         height="22.020197"
         width="132.0114"
         id="rect6826"
         style="opacity:0.27102805;fill:#000000;fill-opacity:1;stroke:none" />
      <rect
         style="opacity:0.68691586;fill:#ffffff;fill-opacity:1;stroke:none"
         id="rect7406"
         width="130.76413"
         height="20.660456"
         x="435.58365"
         y="179.29001"
         ry="4.8333259" />
    </g>
    <path
       id="path6823"
       d="m 83.941065,1031.087 -3.990391,1.1204 0.969087,16.5645 3.022506,-0.2862 -0.478471,-6.5388 1.914909,6.698 4.149623,0.1659 0.158024,-17.241 -4.627289,-0.3177 0.63769,5.5874 z m -49.019875,0.1652 -9.895692,0.3185 -2.229516,16.2778 10.692607,1.1216 0.158823,-5.9085 -6.381776,-0.4793 0.794918,-5.5874 5.745682,0.478 z m 72.52281,0.6027 -4.77136,0.9482 2.40745,8.2824 0.33834,8.3272 4.98089,0.6704 0.13388,-8.8061 3.7741,-8.6655 -5.83632,-0.6576 -0.22357,2.4463 z m -45.793324,-0.1447 -3.424609,0.2583 -1.241097,16.9096 5.232686,0.4899 -0.160019,-9.4213 0.474873,1.2752 1.917306,-0.6369 1.114558,-1.1176 0.483903,8.6198 5.066827,0.6762 -2.197229,-16.3173 -3.672744,-0.3184 -1.613758,2.2731 z m -10.195551,-0.6333 -1.118799,5.2644 -1.598862,-5.5852 -3.3527,0.6392 -1.592227,16.5146 4.568326,0.9026 0.592303,-5.6307 0.586519,0.983 2.687146,-0.021 0.640733,-2.1644 0.498901,7.1344 5.189823,-0.4988 -1.978655,-16.7627 z m 52.514815,0.3751 -9.808648,1.3409 1.002581,6.8518 2.43318,-0.1725 0.65136,10.4349 5.006227,0 -1.69877,-11.4438 3.89551,0.1469 z m -27.680506,0.2405 -4.25e-4,10.6924 -1.753694,-0.1583 0.158826,-10.3748 -5.189826,1.1923 0.665552,15.5097 10.588797,0.7541 -0.318845,-17.4558 z m 13.606021,0.2513 -0.683332,17.7909 5.85583,0 0,-17.7718 z m -45.302815,-0.23 -9.736472,0.3184 -2.25698,17.2371 11.64754,0.3393 z m -5.9053,5.2674 1.271385,0.1646 0.0047,5.2625 -1.599111,0 z"
       style="opacity:0.24568966;fill:#000000;fill-opacity:1;stroke:none"
       inkscape:connector-curvature="0"
       sodipodi:nodetypes="ccccccccccccccccccccccccccccccccccccccccccccccccccccccccccccccccccccccccccccccccccccccccccc" />
    <path
       style="fill:url(#linearGradient9754);fill-opacity:1;stroke:none"
       d="m 83.462202,1031.5659 -2.71342,1.4397 -0.159227,15.0066 2.394978,-0.4843 -0.159226,-10.2101 2.872641,10.3694 2.872649,0.1658 0.63689,-15.1658 -3.350314,-0.6369 0.31845,10.376 z m -49.339121,0.4844 -8.299475,0.3184 -2.069895,14.6817 8.777146,0.9619 0.318446,-4.3121 -6.541395,0.1591 1.273779,-7.6626 5.586059,0.3184 z m 72.930169,0.7017 -3.58251,0.8492 2.72669,7.165 0.33835,7.8484 2.90581,0.5108 -0.34498,-7.8484 4.09334,-8.1867 -3.92085,-0.3383 -1.02169,5.7984 z m -45.793322,-0.1445 -2.235752,0.1591 -1.598859,15.1593 3.834611,0.4844 0.159222,-11.8157 1.592226,3.3503 1.917304,-0.6369 1.114559,-2.5542 0.643525,10.5353 3.668753,0.3184 -2.23575,-14.3632 -2.076528,-0.3184 -2.23575,2.7134 z m -9.006695,-0.7325 -2.07653,6.5413 -1.598858,-5.9044 -2.394972,-0.3185 -1.592228,14.6817 2.713418,0.4843 0.796114,-7.981 1.439637,3.5095 1.751447,-0.1593 1.758083,-4.7899 0.796114,10.2168 3.356942,-0.7961 -1.598859,-15.0067 z m 51.237857,0.6943 -8.531687,1.0217 0.68333,4.7767 3.07168,-0.1725 0.17249,10.7541 3.410007,0 -1.53915,-11.6033 3.41665,-0.1725 z m -26.403548,-0.078 0.159226,11.4905 -3.509535,-0.4776 0.318443,-10.8537 -3.852298,0.7961 1.138882,14.2106 8.458702,0 -0.159226,-15.1659 z m 13.606022,0.2513 -0.683332,16.035 4.099982,0 0,-15.6967 z m -46.899033,-0.2301 -8.140254,0.3185 -2.554194,14.529 9.8917,0.7962 z m -5.586059,2.7134 2.229116,0.6436 0.802749,7.3375 -4.153057,0 z"
       id="path6801"
       inkscape:connector-curvature="0"
       sodipodi:nodetypes="ccccccccccccccccccccccccccccccccccccccccccccccccccccccccccccccccccccccccccccccccccccccccccc" />
    <path
       inkscape:connector-curvature="0"
       id="path6843"
       d="m 84.100691,1032.364 -2.71342,1.4397 -0.159226,15.0067 2.394976,-0.4843 -0.159225,-10.2101 2.872644,10.3693 2.872644,0.1659 0.63689,-15.1659 -3.350314,-0.637 0.31845,10.376 z m -49.33912,0.4844 -8.299479,0.3184 -2.069895,14.6817 8.777146,0.962 0.318447,-4.3123 -6.541395,0.1592 1.273781,-7.6625 5.58606,0.3184 z m 72.930169,0.7017 -3.58251,0.8492 2.72669,7.165 0.33834,7.8484 2.90582,0.5108 -0.34499,-7.8483 4.09336,-8.1867 -3.92086,-0.3384 -1.02168,5.7983 z m -45.793326,-0.1446 -2.235751,0.1592 -1.598858,15.1594 3.834609,0.4843 0.159222,-11.8156 1.592226,3.3502 1.917305,-0.6369 1.114558,-2.5542 0.643526,10.5353 3.470611,0.2194 -2.037608,-14.2642 -2.076529,-0.3184 -2.23575,2.7135 z m -9.006694,-0.7324 -2.07653,6.5414 -1.598859,-5.9045 -2.394973,-0.3184 -1.592226,14.6816 2.713418,0.4843 0.796114,-7.981 1.439637,3.5095 1.751446,-0.1592 1.758083,-4.79 0.796114,10.2169 3.356942,-0.7962 -1.598859,-15.0067 z m 51.23785,0.6944 -8.531667,1.0216 0.68332,4.7766 3.07167,-0.1723 0.17249,10.7541 3.410017,0 -1.53915,-11.6034 3.41666,-0.1725 z m -26.403539,-0.079 0.159226,11.4905 -3.509536,-0.4777 0.318445,-10.8535 -3.852302,0.5979 1.138882,14.4087 8.458705,0 -0.159226,-15.1659 z m 13.60602,0.2512 -0.683332,16.0351 4.099979,0 0,-15.6967 z m -46.899033,-0.2299 -8.140254,0.3184 -2.554195,14.529 9.8917,0.7962 z m -5.58606,2.7134 2.229117,0.6435 0.802748,7.3375 -4.153056,0 z"
       style="opacity:0.10775865;fill:#000000;fill-opacity:1;stroke:none"
       sodipodi:nodetypes="ccccccccccccccccccccccccccccccccccccccccccccccccccccccccccccccccccccccccccccccccccccccccccc" />
    <g
       id="g7408"
       transform="matrix(1.291283,0,0,1.291283,-552.2927,724.12579)">
      <path
         style="fill:#60a566;fill-opacity:1;stroke:none;display:inline"
         d="m 447.6768,191.5374 c 0,0 -1.4147,-3.90907 1.12743,-4.50136 1.36751,-0.31861 3.22123,-0.54016 3.22123,-0.54016 0,0 -3.0599,-6.94153 2.0938,-7.20217 5.15371,-0.26065 1.61062,7.38222 1.61062,7.38222 0,0 2.57008,-0.48942 3.54336,0.36011 1.91922,1.6752 0.48319,4.6814 0.48319,4.6814 z"
         id="path5949"
         inkscape:connector-curvature="0"
         sodipodi:nodetypes="csczcscc" />
      <path
         style="fill:#000000;fill-opacity:0.27053139;stroke:none;display:inline"
         d="m 448.90604,191.36541 c 0,0 -1.18201,-3.35146 1.25516,-3.92935 1.31106,-0.31089 3.08824,-0.26266 3.08824,-0.26266 0,0 -2.97305,-6.313 1.4845,-6.96119 4.47616,-0.6509 1.07935,6.80638 1.07935,6.80638 0,0 2.58016,-0.14703 3.51326,0.68186 1.83999,1.63453 0.52133,3.77454 0.52133,3.77454 z"
         id="path6600"
         inkscape:connector-curvature="0"
         sodipodi:nodetypes="cscscscc" />
      <path
         sodipodi:nodetypes="csczcscc"
         inkscape:connector-curvature="0"
         id="path5947"
         d="m 441.71751,195.49858 c 0,0 -1.41469,-3.90907 1.12744,-4.50134 1.36751,-0.31862 3.22123,-0.54017 3.22123,-0.54017 0,0 -3.05989,-6.94152 2.0938,-7.20216 5.1537,-0.26064 1.61062,7.38222 1.61062,7.38222 0,0 2.57007,-0.48941 3.54335,0.36011 1.91922,1.67519 0.48319,4.68141 0.48319,4.68141 z"
         style="fill:#4377ba;fill-opacity:1;stroke:none;display:inline" />
      <path
         sodipodi:nodetypes="cscscscc"
         inkscape:connector-curvature="0"
         id="path6598"
         d="m 442.96748,195.50047 c 0,0 -1.182,-3.26807 1.25516,-3.83158 1.31107,-0.30313 3.08825,-0.25611 3.08825,-0.25611 0,0 -2.97305,-6.15589 1.4845,-6.78795 4.47616,-0.63468 1.07935,6.63701 1.07935,6.63701 0,0 2.58016,-0.14339 3.51326,0.66488 1.83999,1.59384 0.52133,3.68061 0.52133,3.68061 z"
         style="fill:#000000;fill-opacity:0.27053139;stroke:none;display:inline" />
      <path
         sodipodi:nodetypes="csczcscc"
         inkscape:connector-curvature="0"
         id="path5951"
         d="m 450.41484,196.37568 c 0,0 -1.41469,-3.90908 1.12744,-4.50134 1.36752,-0.31863 3.22124,-0.54017 3.22124,-0.54017 0,0 -3.05992,-6.94154 2.09378,-7.20217 5.15371,-0.26063 1.61063,7.38223 1.61063,7.38223 0,0 2.57007,-0.48942 3.54335,0.36011 1.91923,1.67518 0.48319,4.6814 0.48319,4.6814 z"
         style="fill:#cb8c00;fill-opacity:1;stroke:none;display:inline" />
      <path
         style="fill:#000000;fill-opacity:0.27053139;stroke:none;display:inline"
         d="m 451.57182,196.44616 c 0,0 -1.17993,-3.35148 1.25296,-3.92937 1.30875,-0.31087 3.08282,-0.26266 3.08282,-0.26266 0,0 -2.96783,-6.31298 1.4819,-6.96118 4.46829,-0.6509 1.07746,6.80638 1.07746,6.80638 0,0 2.57563,-0.14704 3.50709,0.68186 1.83677,1.6345 0.52042,3.77455 0.52042,3.77455 z"
         id="path6596"
         inkscape:connector-curvature="0"
         sodipodi:nodetypes="cscscscc" />
    </g>
    <path
       style="fill:#3c6898;fill-opacity:1;stroke:none;display:inline"
       d="m -9.5610474,1009.9867 c 0,0 -1.4930976,-4.1258 1.189909,-4.7509 1.443293,-0.3363 3.39974,-0.5701 3.39974,-0.5701 0,0 -3.229471,-7.32617 2.209831,-7.60127 5.439313,-0.275 1.699876,7.79127 1.699876,7.79127 0,0 2.712505,-0.5165 3.73972,0.3801 2.025578,1.7681 0.509968,4.9408 0.509968,4.9408 z"
       id="path9728"
       inkscape:connector-curvature="0"
       sodipodi:nodetypes="csczcscc" />
    <path
       style="fill:#000000;fill-opacity:0.27053139;stroke:none;display:inline"
       d="m -8.2636874,1009.8052 c 0,0 -1.247512,-3.5373 1.324717,-4.1471 1.383715,-0.3282 3.259381,-0.2773 3.259381,-0.2773 0,0 -3.137807,-6.66277 1.566765,-7.34697 4.724215,-0.6869 1.13916501,7.18367 1.13916501,7.18367 0,0 2.72314399,-0.1553 3.70795299,0.7196 1.941956,1.7251 0.550221,3.9837 0.550221,3.9837 z"
       id="path9730"
       inkscape:connector-curvature="0"
       sodipodi:nodetypes="cscscscc" />
    <path
       sodipodi:nodetypes="csczcscc"
       inkscape:connector-curvature="0"
       id="path9732"
       d="m -15.850582,1014.1674 c 0,0 -1.493087,-4.1258 1.189919,-4.7508 1.443293,-0.3363 3.39974,-0.5702 3.39974,-0.5702 0,0 -3.229459,-7.3261 2.2098316,-7.6013 5.439302,-0.2749 1.699875,7.7914 1.699875,7.7914 0,0 2.712495,-0.5165 3.739711,0.3801 2.025577,1.7679 0.509967,4.9408 0.509967,4.9408 z"
       style="fill:#dc4747;fill-opacity:1;stroke:none;display:inline" />
    <path
       sodipodi:nodetypes="cscscscc"
       inkscape:connector-curvature="0"
       id="path9734"
       d="m -14.531343,1014.1694 c 0,0 -1.247502,-3.4493 1.324717,-4.044 1.383726,-0.32 3.2593918,-0.2703 3.2593918,-0.2703 0,0 -3.1378078,-6.497 1.5667658,-7.1641 4.724214,-0.6699 1.139163,7.0048 1.139163,7.0048 0,0 2.723145,-0.1513 3.707954,0.7017 1.941957,1.6822 0.55022,3.8847 0.55022,3.8847 z"
       style="fill:#000000;fill-opacity:0.27053139;stroke:none;display:inline" />
    <path
       sodipodi:nodetypes="csczcscc"
       inkscape:connector-curvature="0"
       id="path9736"
       d="m -49.122477,999.68865 c 0,0 -1.493088,-4.1257 1.189919,-4.7508 1.443304,-0.3363 1.735014,-0.77819 1.735014,-0.77819 0,0 -1.564754,-7.11811 3.874547,-7.39311 5.439312,-0.2752 3.225895,7.65247 3.225895,7.65247 0,0 1.186487,-0.37767 2.213703,0.51883 2.025586,1.7681 0.509966,4.9409 0.509966,4.9409 z"
       style="fill:#3c913e;fill-opacity:1;stroke:none;display:inline" />
    <path
       style="fill:#000000;fill-opacity:0.27053139;stroke:none;display:inline"
       d="m -47.901381,999.76315 c 0,0 -1.175953,-3.4679 1.391759,-4.0778 1.381277,-0.3281 1.450196,-0.4853 1.450196,-0.4853 0,0 -0.52338,-5.0803 3.367486,-5.4742 3.466278,-0.3509 2.593814,5.3109 2.593814,5.3109 0,0 1.192355,-0.017 2.175432,0.8583 1.938558,1.725 0.549261,3.9837 0.549261,3.9837 z"
       id="path9738"
       inkscape:connector-curvature="0"
       sodipodi:nodetypes="cscscscc" />
    <g
       id="g4001"
       transform="matrix(0.75118842,0,0,0.75118842,13.474666,199.41868)">
      <path
         style="fill:#dc4747;fill-opacity:1;stroke:none"
         d="m -31.502657,994.23948 c -5.394953,0.425 -2.904166,4.1813 -4.932847,7.36272 -0.73817,1.1576 -2.034099,1.6016 -2.993351,2.6184 -0.670196,0.7104 -1.489894,2.9993 -1.975399,5.0066 -0.447586,1.8507 0.937917,5.6128 1.951797,5.7331 0.604546,0.072 0.08065,-2.4945 0.548203,-4.0768 -0.03237,1.3801 2.006314,-0.5963 2.228394,0.2383 l 10.615356,3.0429 c 0.179462,-0.8844 0.245258,-2.0337 0.21875,-3.5312 0.490666,1.6776 0.03102,0.9405 0.673203,0.8643 1.01388,-0.1203 2.368132,-0.3574 1.920547,-2.2081 -0.485515,-2.0074 -1.800943,-3.4624 -2.507647,-4.1363 -0.870475,-0.8301 -1.313863,-2.2483 -1.836103,-3.1449 -0.764491,-1.3125 0.09962,-2.01582 0.0085,-3.51772 -0.09108,-1.5018 -1.137364,-3.8021 -3.91944,-4.2513 z"
         id="path3985"
         inkscape:connector-curvature="0"
         sodipodi:nodetypes="cssccccccscssscc" />
      <path
         sodipodi:nodetypes="cssccccccscssc"
         inkscape:connector-curvature="0"
         id="path3987"
         d="m -31.164559,995.92998 c -4.380656,0.1996 -2.002569,4.0686 -4.03125,7.25002 -0.73817,1.1576 -2.259498,1.827 -3.21875,2.8438 -0.670196,0.7104 -1.264495,2.7739 -1.75,4.7812 -0.447586,1.8507 -0.301779,4.2604 0.712101,4.3807 0.604546,0.072 1.320347,-1.1421 1.787899,-2.7244 -0.03237,1.3801 0.09042,2.4466 0.3125,3.2812 l 12.53125,0 c 0.179462,-0.8844 0.245258,-2.0337 0.21875,-3.5312 0.490666,1.6776 1.045321,3.4199 1.6875,3.3437 1.01388,-0.1203 1.353835,-2.8368 0.90625,-4.6875 -0.485515,-2.0074 -1.012046,-4.1386 -1.71875,-4.8125 -0.870475,-0.8301 -2.102788,-1.5721 -2.625,-2.4687 -1.528981,-2.625 0.211184,-7.88492 -4.8125,-7.65632 z"
         style="fill:#a03434;fill-opacity:1;stroke:none" />
    </g>
    <g
       id="g3993"
       transform="matrix(0.75118842,0,0,0.75118842,-5.468952,165.75992)">
      <path
         sodipodi:nodetypes="cssccccccscssscc"
         inkscape:connector-curvature="0"
         id="path3989"
         d="m -15.612009,1042.0241 c -5.394953,0.425 -2.904166,4.1813 -4.932847,7.3627 -0.73817,1.1576 -2.034099,1.6016 -2.993351,2.6184 -0.670196,0.7104 -1.489894,2.9993 -1.975399,5.0066 -0.447586,1.8507 0.937917,5.6128 1.951797,5.7331 0.604546,0.072 0.08065,-2.4945 0.548203,-4.0768 -0.03237,1.3801 2.006314,-0.5963 2.228394,0.2383 l 10.615356,3.0429 c 0.1794615,-0.8844 0.2452575,-2.0337 0.2187495,-3.5312 0.490666,1.6776 0.03102,0.9405 0.673203,0.8643 1.01388,-0.1203 2.368132,-0.3574 1.920547,-2.2081 -0.485515,-2.0074 -1.800943,-3.4624 -2.507647,-4.1363 -0.8704745,-0.8301 -1.3138625,-2.2483 -1.8361025,-3.1449 -0.764491,-1.3125 0.09962,-2.0158 0.0085,-3.5177 -0.09108,-1.5018 -1.137364,-3.8021 -3.91944,-4.2513 z"
         style="fill:#3c6898;fill-opacity:1;stroke:none" />
      <path
         style="fill:#2c4c6f;fill-opacity:1;stroke:none"
         d="m -15.273911,1043.7146 c -4.380656,0.1996 -2.002569,4.0686 -4.03125,7.25 -0.73817,1.1576 -2.259498,1.827 -3.21875,2.8438 -0.670196,0.7104 -1.264495,2.7739 -1.75,4.7812 -0.447586,1.8507 -0.301779,4.2604 0.712101,4.3807 0.604546,0.072 1.320347,-1.1421 1.787899,-2.7244 -0.03237,1.3801 0.09042,2.4466 0.3125,3.2812 l 12.5312495,0 c 0.179462,-0.8844 0.245258,-2.0337 0.21875,-3.5312 0.490666,1.6776 1.045321,3.4199 1.6875,3.3437 1.01388,-0.1203 1.353835,-2.8368 0.90625,-4.6875 -0.485515,-2.0074 -1.012046,-4.1386 -1.71875,-4.8125 -0.870475,-0.8301 -2.102788,-1.5721 -2.6249995,-2.4687 -1.528981,-2.625 0.211184,-7.8849 -4.8125,-7.6563 z"
         id="path3991"
         inkscape:connector-curvature="0"
         sodipodi:nodetypes="cssccccccscssc" />
    </g>
    <g
       id="g3997"
       transform="matrix(0.75118842,0,0,0.75118842,12.29069,187.0715)">
      <path
         sodipodi:nodetypes="cssccccccscssscc"
         inkscape:connector-curvature="0"
         id="path3978"
         d="m -32.066155,1018.1318 c -5.394953,0.425 -2.904166,4.1813 -4.932847,7.3627 -0.73817,1.1576 -2.034099,1.6016 -2.993351,2.6184 -0.670196,0.7104 -1.489894,2.9993 -1.975399,5.0066 -0.447586,1.8507 0.937917,5.6128 1.951797,5.7331 0.604546,0.072 0.08065,-2.4945 0.548203,-4.0768 -0.03237,1.3801 2.006314,-0.5963 2.228394,0.2383 l 10.615356,3.0429 c 0.179462,-0.8844 0.245258,-2.0337 0.21875,-3.5312 0.490666,1.6776 0.03102,0.9405 0.673203,0.8643 1.01388,-0.1203 2.368132,-0.3574 1.920547,-2.2081 -0.485515,-2.0074 -1.800943,-3.4624 -2.507647,-4.1363 -0.870475,-0.8301 -1.313863,-2.2483 -1.836103,-3.1449 -0.764491,-1.3125 0.09962,-2.0158 0.0085,-3.5177 -0.09108,-1.5018 -1.137364,-3.8021 -3.91944,-4.2513 z"
         style="fill:#3c913e;fill-opacity:1;stroke:none" />
      <path
         style="fill:#2c6a2d;fill-opacity:1;stroke:none"
         d="m -31.728057,1019.8223 c -4.380656,0.1996 -2.002569,4.0686 -4.03125,7.25 -0.73817,1.1576 -2.259498,1.827 -3.21875,2.8438 -0.670196,0.7104 -1.264495,2.7739 -1.75,4.7812 -0.447586,1.8507 -0.301779,4.2604 0.712101,4.3807 0.604546,0.072 1.320347,-1.1421 1.787899,-2.7244 -0.03237,1.3801 0.09042,2.4466 0.3125,3.2812 l 12.53125,0 c 0.179462,-0.8844 0.245258,-2.0337 0.21875,-3.5312 0.490666,1.6776 1.045321,3.4199 1.6875,3.3437 1.01388,-0.1203 1.353835,-2.8368 0.90625,-4.6875 -0.485515,-2.0074 -1.012046,-4.1386 -1.71875,-4.8125 -0.870475,-0.8301 -2.102788,-1.5721 -2.625,-2.4687 -1.528981,-2.625 0.211184,-7.8849 -4.8125,-7.6563 z"
         id="path3983"
         inkscape:connector-curvature="0"
         sodipodi:nodetypes="cssccccccscssc" />
    </g>
    <path
       style="fill:#000000;fill-opacity:0.31372549;fill-rule:nonzero;stroke:none"
       d="m 16.717695,1040.9954 c -2.096121,0 -3.837375,0.6552 -4.464978,1.5641 -0.858531,-0.4139 -2.045767,-0.6826 -3.3558428,-0.6826 -2.6201503,0 -4.7209319,1.0405 -4.7209319,2.3037 0,1.2631 2.1007816,2.2751 4.7209319,2.2751 0.028794,0 0.056642,2e-4 0.085318,0 -0.1696596,0.2353 -0.2843935,0.4763 -0.2843935,0.7395 0,1.263 2.1292213,2.2751 4.7493713,2.2751 2.620151,0 4.749371,-1.0121 4.749371,-2.2751 0,-0.6316 -0.534996,-1.2072 -1.393528,-1.6211 2.580372,-0.022 4.664054,-1.0259 4.664054,-2.2752 0,-1.2631 -2.129221,-2.3035 -4.749372,-2.3035 z m -3.327404,3.8961 c 0.01841,0.01 0.03817,0.02 0.05688,0.028 -0.02888,0 -0.05657,-2e-4 -0.08532,0 0.0079,-0.011 0.0209,-0.017 0.02844,-0.028 z"
       id="path3788"
       inkscape:connector-curvature="0" />
    <g
       id="g4180"
       transform="matrix(0.45599927,0,0,0.45599927,0.84514281,545.34553)">
      <path
         sodipodi:nodetypes="ccccccccsccccccccccsccscccsccsc"
         inkscape:connector-curvature="0"
         style="fill:#dc4747;fill-opacity:1;stroke:none"
         d="m 31.822709,1065.5685 c -4.379549,0.2225 -2.170115,3.8159 -4.03125,7.0981 -0.07355,0.1297 -0.144849,0.3005 -0.21875,0.4375 -0.828826,0.3066 -1.583043,1.6004 -2.396524,2.4665 -0.668499,0.712 -1.38519,2.8656 -1.870695,4.8729 -0.447586,1.8507 0.768486,5.8948 1.782366,6.0151 0.592707,0.07 -0.225351,-2.8673 0.234853,-4.417 -0.03689,1.7744 0.3478,4.1882 0.712293,5.0842 -2.078897,0.5829 -3.016796,2.2067 -2.668048,3.2574 0.526108,1.5851 0.884424,-1.4824 2.054926,-0.9569 1.329006,0.5969 -0.149837,0.3426 1.002153,0.695 1.347729,0.4128 0.5472,-0.35 1.898676,-0.017 1.198683,0.2952 0.391793,1.5261 2,1.4375 0.940298,-0.052 0.918675,-1.8148 0.5,-3.4375 0.374625,-0.01 0.76201,-0.022 1.15625,-0.031 -0.51778,1.5964 -0.22513,0.2546 0.734933,0.308 1.472146,0.081 0.625785,0.8578 1.723055,0.5875 1.237135,-0.3048 0.808306,2.2946 2.042012,1.917 1.05452,-0.323 -0.247804,-1.1099 0.96875,-1.6562 1.071472,-0.4812 -1.030237,1.0511 -0.54863,-0.3998 0.256615,-0.7731 2.054311,-1.3141 0.57988,-1.8502 0.711121,-0.8639 0.955374,-2.4748 0.90625,-5.25 0.490666,1.6776 2.252274,4.8682 2.894453,4.792 1.01388,-0.1203 0.17813,-4.3163 -0.269453,-6.167 -0.485515,-2.0074 -1.745315,-3.285 -2.413824,-3.9968 -0.65428,-0.6969 -1.005733,-2.4373 -1.804926,-2.9407 -0.02582,-0.058 -0.0432,-0.1055 -0.06107,-0.1541 -0.01786,-0.049 -0.03621,-0.098 -0.06393,-0.1584 -0.633313,-1.3806 0.558275,-2.869 0.133626,-4.4665 -0.849242,-2.54 -1.598446,-3.2411 -4.977376,-3.0694 z"
         id="path4162" />
      <path
         inkscape:connector-curvature="0"
         id="path3612"
         d="m 33.108772,1067.0519 c -4.380656,0.1996 -2.170115,3.9366 -4.03125,7.2188 -0.07355,0.1297 -0.144849,0.3004 -0.21875,0.4375 -0.828826,0.3066 -2.186519,1.54 -3,2.4062 -0.668499,0.712 -1.264495,2.8052 -1.75,4.8125 -0.447586,1.8507 -0.07638,4.5672 0.9375,4.6875 0.592707,0.07 1.102296,-1.419 1.5625,-2.9687 -0.03689,1.7744 0.166757,3.0415 0.53125,3.9375 -2.078897,0.5829 -4.223748,1.543 -3.875,2.5937 0.526108,1.5851 1.548248,-0.2755 2.71875,0.25 1.329006,0.5969 -0.08949,1.4289 1.0625,1.7813 1.347729,0.4128 1.211024,-0.8328 2.5625,-0.5 1.198683,0.2952 0.391793,1.5261 2,1.4375 0.940298,-0.052 0.918675,-1.8148 0.5,-3.4375 0.374625,-0.01 0.76201,-0.022 1.15625,-0.031 -0.51778,1.5964 -0.647563,3.6341 0.3125,3.6875 1.472146,0.081 0.74648,-1.0734 1.84375,-1.3437 1.237135,-0.3048 1.110044,0.8463 2.34375,0.4687 1.05452,-0.323 -0.247804,-1.1099 0.96875,-1.6562 1.071472,-0.4812 1.987143,1.2321 2.46875,-0.2188 0.256615,-0.7732 -0.963069,-1.4951 -2.4375,-2.0312 0.711121,-0.864 0.955374,-2.4748 0.90625,-5.25 0.490666,1.6775 1.045321,3.4198 1.6875,3.3437 1.01388,-0.1203 1.385085,-2.868 0.9375,-4.7187 -0.485515,-2.0074 -1.081491,-4.0695 -1.75,-4.7813 -0.65428,-0.6969 -1.669557,-1.6529 -2.46875,-2.1562 -0.05163,-0.1153 -0.06955,-0.1917 -0.125,-0.3125 -1.266626,-2.7612 0.179934,-7.8849 -4.84375,-7.6563 z"
         style="fill:#a03434;fill-opacity:1;stroke:none" />
    </g>
    <g
       id="g4176"
       transform="matrix(0.45599927,0,0,0.45599927,-17.774829,546.6122)">
      <path
         id="path4164"
         d="m 58.489376,1065.5685 c -4.379549,0.2225 -2.170115,3.8159 -4.03125,7.0981 -0.07355,0.1297 -0.144849,0.3005 -0.21875,0.4375 -0.828826,0.3066 -1.583043,1.6004 -2.396524,2.4665 -0.668499,0.712 -1.38519,2.8656 -1.870695,4.8729 -0.447586,1.8507 0.768486,5.8948 1.782366,6.0151 0.592707,0.07 -0.225351,-2.8673 0.234853,-4.417 -0.03689,1.7744 0.3478,4.1882 0.712293,5.0842 -2.078897,0.5829 -3.016796,2.2067 -2.668048,3.2574 0.526108,1.5851 0.884424,-1.4824 2.054926,-0.9569 1.329006,0.5969 -0.149837,0.3426 1.002153,0.695 1.347729,0.4128 0.5472,-0.35 1.898676,-0.017 1.198683,0.2952 0.391793,1.5261 2,1.4375 0.940298,-0.052 0.918675,-1.8148 0.5,-3.4375 0.374625,-0.01 0.76201,-0.022 1.15625,-0.031 -0.51778,1.5964 -0.22513,0.2546 0.734933,0.308 1.472146,0.081 0.625785,0.8578 1.723055,0.5875 1.237135,-0.3048 0.808306,2.2946 2.042012,1.917 1.05452,-0.323 -0.247804,-1.1099 0.96875,-1.6562 1.071472,-0.4812 -1.030237,1.0511 -0.54863,-0.3998 0.256615,-0.7731 2.054311,-1.3141 0.57988,-1.8502 0.711121,-0.8639 0.955374,-2.4748 0.90625,-5.25 0.490666,1.6776 2.252274,4.8682 2.894453,4.792 1.01388,-0.1203 0.17813,-4.3163 -0.269453,-6.167 -0.485515,-2.0074 -1.745315,-3.285 -2.413824,-3.9968 -0.65428,-0.6969 -1.005733,-2.4373 -1.804926,-2.9407 -0.02582,-0.058 -0.0432,-0.1055 -0.06107,-0.1541 -0.01786,-0.049 -0.03621,-0.098 -0.06393,-0.1584 -0.633313,-1.3806 0.558275,-2.869 0.133626,-4.4665 -0.849242,-2.54 -1.598446,-3.2411 -4.977376,-3.0694 z"
         style="fill:#3c6898;fill-opacity:1;stroke:none"
         inkscape:connector-curvature="0"
         sodipodi:nodetypes="ccccccccsccccccccccsccscccsccsc" />
      <path
         style="fill:#2c4c6f;fill-opacity:1;stroke:none"
         d="m 59.775439,1067.0519 c -4.380656,0.1996 -2.170115,3.9366 -4.03125,7.2188 -0.07355,0.1297 -0.144849,0.3004 -0.21875,0.4375 -0.828826,0.3066 -2.186519,1.54 -3,2.4062 -0.668499,0.712 -1.264495,2.8052 -1.75,4.8125 -0.447586,1.8507 -0.07638,4.5672 0.9375,4.6875 0.592707,0.07 1.102296,-1.419 1.5625,-2.9687 -0.03689,1.7744 0.166757,3.0415 0.53125,3.9375 -2.078897,0.5829 -4.223748,1.543 -3.875,2.5937 0.526108,1.5851 1.548248,-0.2755 2.71875,0.25 1.329006,0.5969 -0.08949,1.4289 1.0625,1.7813 1.347729,0.4128 1.211024,-0.8328 2.5625,-0.5 1.198683,0.2952 0.391793,1.5261 2,1.4375 0.940298,-0.052 0.918675,-1.8148 0.5,-3.4375 0.374625,-0.01 0.76201,-0.022 1.15625,-0.031 -0.51778,1.5964 -0.647563,3.6341 0.3125,3.6875 1.472146,0.081 0.74648,-1.0734 1.84375,-1.3437 1.237135,-0.3048 1.110044,0.8463 2.34375,0.4687 1.05452,-0.323 -0.247804,-1.1099 0.96875,-1.6562 1.071472,-0.4812 1.987143,1.2321 2.46875,-0.2188 0.256615,-0.7732 -0.963069,-1.4951 -2.4375,-2.0312 0.711121,-0.864 0.955374,-2.4748 0.90625,-5.25 0.490666,1.6775 1.045321,3.4198 1.6875,3.3437 1.01388,-0.1203 1.385085,-2.868 0.9375,-4.7187 -0.485515,-2.0074 -1.081491,-4.0695 -1.75,-4.7813 -0.65428,-0.6969 -1.669557,-1.6529 -2.46875,-2.1562 -0.05163,-0.1153 -0.06955,-0.1917 -0.125,-0.3125 -1.266626,-2.7612 0.179934,-7.8849 -4.84375,-7.6563 z"
         id="path4166"
         inkscape:connector-curvature="0" />
    </g>
    <g
       id="g4172"
       transform="matrix(0.45599927,0,0,0.45599927,-27.274813,551.67984)">
      <path
         sodipodi:nodetypes="ccccccccsccccccccccsccscccsccsc"
         inkscape:connector-curvature="0"
         style="fill:#368338;fill-opacity:1;stroke:none"
         d="m 89.044931,1061.6796 c -4.379549,0.2225 -2.170115,3.8159 -4.03125,7.0981 -0.07355,0.1297 -0.144849,0.3005 -0.21875,0.4375 -0.828826,0.3066 -1.583043,1.6004 -2.396524,2.4665 -0.668499,0.712 -1.38519,2.8656 -1.870695,4.8729 -0.447586,1.8507 0.768486,5.8948 1.782366,6.0151 0.592707,0.07 -0.225351,-2.8673 0.234853,-4.417 -0.03689,1.7744 0.3478,4.1882 0.712293,5.0842 -2.078897,0.5829 -3.016796,2.2067 -2.668048,3.2574 0.526108,1.5851 0.884424,-1.4824 2.054926,-0.9569 1.329006,0.5969 -0.149837,0.3426 1.002153,0.695 1.347729,0.4128 0.5472,-0.35 1.898676,-0.017 1.198683,0.2952 0.391793,1.5261 2,1.4375 0.940298,-0.052 0.918675,-1.8148 0.5,-3.4375 0.374625,-0.01 0.76201,-0.022 1.15625,-0.031 -0.51778,1.5964 -0.22513,0.2546 0.734933,0.308 1.472146,0.081 0.625785,0.8578 1.723055,0.5875 1.237135,-0.3048 0.808306,2.2946 2.042012,1.917 1.05452,-0.323 -0.247804,-1.1099 0.96875,-1.6562 1.071472,-0.4812 -1.030237,1.0511 -0.54863,-0.3998 0.256615,-0.7731 2.054311,-1.3141 0.57988,-1.8502 0.711121,-0.8639 0.955374,-2.4748 0.90625,-5.25 0.490666,1.6776 2.252274,4.8682 2.894453,4.792 1.01388,-0.1203 0.17813,-4.3163 -0.269453,-6.167 -0.485515,-2.0074 -1.745315,-3.285 -2.413824,-3.9968 -0.65428,-0.6969 -1.005733,-2.4373 -1.804926,-2.9407 -0.02582,-0.058 -0.0432,-0.1055 -0.06107,-0.1541 -0.01786,-0.049 -0.03621,-0.098 -0.06393,-0.1584 -0.633313,-1.3806 0.558275,-2.869 0.133626,-4.4665 -0.849242,-2.54 -1.598446,-3.2411 -4.977376,-3.0694 z"
         id="path4168" />
      <path
         inkscape:connector-curvature="0"
         id="path4170"
         d="m 90.330994,1063.163 c -4.380656,0.1996 -2.170115,3.9366 -4.03125,7.2188 -0.07355,0.1297 -0.144849,0.3004 -0.21875,0.4375 -0.828826,0.3066 -2.186519,1.54 -3,2.4062 -0.668499,0.712 -1.264495,2.8052 -1.75,4.8125 -0.447586,1.8507 -0.07638,4.5672 0.9375,4.6875 0.592707,0.07 1.102296,-1.419 1.5625,-2.9687 -0.03689,1.7744 0.166757,3.0415 0.53125,3.9375 -2.078897,0.5829 -4.223748,1.543 -3.875,2.5937 0.526108,1.5851 1.548248,-0.2755 2.71875,0.25 1.329006,0.5969 -0.08949,1.4289 1.0625,1.7813 1.347729,0.4128 1.211024,-0.8328 2.5625,-0.5 1.198683,0.2952 0.391793,1.5261 2,1.4375 0.940298,-0.052 0.918675,-1.8148 0.5,-3.4375 0.374625,-0.01 0.76201,-0.022 1.15625,-0.031 -0.51778,1.5964 -0.647563,3.6341 0.3125,3.6875 1.472146,0.081 0.74648,-1.0734 1.84375,-1.3437 1.237135,-0.3048 1.110044,0.8463 2.34375,0.4687 1.05452,-0.323 -0.247804,-1.1099 0.96875,-1.6562 1.071472,-0.4812 1.987143,1.2321 2.46875,-0.2188 0.256615,-0.7732 -0.963069,-1.4951 -2.4375,-2.0312 0.711121,-0.864 0.955374,-2.4748 0.90625,-5.25 0.490666,1.6775 1.045321,3.4198 1.6875,3.3437 1.01388,-0.1203 1.385085,-2.868 0.9375,-4.7187 -0.485515,-2.0074 -1.081491,-4.0695 -1.75,-4.7813 -0.65428,-0.6969 -1.669557,-1.6529 -2.46875,-2.1562 -0.05163,-0.1153 -0.06955,-0.1917 -0.125,-0.3125 -1.266626,-2.7612 0.179934,-7.8849 -4.84375,-7.6563 z"
         style="fill:#2c6a2d;fill-opacity:1;stroke:none" />
    </g>
  </g>
</svg>
