<?xml version="1.0" encoding="UTF-8" standalone="no"?>
<!-- Created with Inkscape (http://www.inkscape.org/) -->

<svg
   xmlns:dc="http://purl.org/dc/elements/1.1/"
   xmlns:cc="http://creativecommons.org/ns#"
   xmlns:rdf="http://www.w3.org/1999/02/22-rdf-syntax-ns#"
   xmlns:svg="http://www.w3.org/2000/svg"
   xmlns="http://www.w3.org/2000/svg"
   xmlns:xlink="http://www.w3.org/1999/xlink"
   xmlns:sodipodi="http://sodipodi.sourceforge.net/DTD/sodipodi-0.dtd"
   xmlns:inkscape="http://www.inkscape.org/namespaces/inkscape"
   width="30"
   height="30"
   id="svg7184"
   version="1.1"
   inkscape:version="0.48.0 r9654"
   sodipodi:docname="New document 42">
  <defs
     id="defs7186">
    <linearGradient
       id="linearGradient9010">
      <stop
         style="stop-color:#eaf12a;stop-opacity:1;"
         offset="0"
         id="stop9012" />
      <stop
         id="stop9014"
         offset="0.12236128"
         style="stop-color:#ef1422;stop-opacity:1;" />
      <stop
         style="stop-color:#d00000;stop-opacity:1;"
         offset="1"
         id="stop9016" />
    </linearGradient>
    <linearGradient
       id="linearGradient3658">
      <stop
         id="stop3660"
         offset="0"
         style="stop-color:#eaf12a;stop-opacity:1;" />
      <stop
         style="stop-color:#ef1422;stop-opacity:1;"
         offset="0.50471944"
         id="stop3666" />
      <stop
         id="stop3662"
         offset="1"
         style="stop-color:#d00000;stop-opacity:1;" />
    </linearGradient>
    <linearGradient
       gradientTransform="matrix(0.70710678,-0.70710678,0.70710678,0.70710678,-728.69485,314.01233)"
       gradientUnits="userSpaceOnUse"
       y2="1047.6548"
       x2="3.5233176"
       y1="1026.2269"
       x1="24.951166"
       id="linearGradient3664"
       xlink:href="#linearGradient3658"
       inkscape:collect="always" />
    <inkscape:perspective
       sodipodi:type="inkscape:persp3d"
       inkscape:vp_x="0 : 0.5 : 1"
       inkscape:vp_y="0 : 1000 : 0"
       inkscape:vp_z="1 : 0.5 : 1"
       inkscape:persp3d-origin="0.5 : 0.33333333 : 1"
       id="perspective3730" />
    <inkscape:perspective
       id="perspective3720"
       inkscape:persp3d-origin="372.04724 : 350.78739 : 1"
       inkscape:vp_z="744.09448 : 526.18109 : 1"
       inkscape:vp_y="0 : 1000 : 0"
       inkscape:vp_x="0 : 526.18109 : 1"
       sodipodi:type="inkscape:persp3d" />
    <linearGradient
       inkscape:collect="always"
       xlink:href="#linearGradient9010"
       id="linearGradient9007"
       gradientUnits="userSpaceOnUse"
       gradientTransform="matrix(0.41103102,-0.41103102,0.41103102,0.41103102,-411.05936,623.23157)"
       x1="24.951166"
       y1="1026.2269"
       x2="3.5233176"
       y2="1047.6548" />
  </defs>
  <sodipodi:namedview
     id="base"
     pagecolor="#ffffff"
     bordercolor="#666666"
     borderopacity="1.0"
     inkscape:pageopacity="0.0"
     inkscape:pageshadow="2"
     inkscape:zoom="9.8429264"
     inkscape:cx="14.881767"
     inkscape:cy="15.108013"
     inkscape:document-units="px"
     inkscape:current-layer="layer1"
     showgrid="false"
     inkscape:window-width="947"
     inkscape:window-height="733"
     inkscape:window-x="49"
     inkscape:window-y="152"
     inkscape:window-maximized="0" />
  <metadata
     id="metadata7189">
    <rdf:RDF>
      <cc:Work
         rdf:about="">
        <dc:format>image/svg+xml</dc:format>
        <dc:type
           rdf:resource="http://purl.org/dc/dcmitype/StillImage" />
        <dc:title></dc:title>
      </cc:Work>
    </rdf:RDF>
  </metadata>
  <g
     inkscape:label="Layer 1"
     inkscape:groupmode="layer"
     id="layer1"
     transform="translate(0,-1022.3622)">
    <g
       id="g7273">
      <path
         id="rect3002-0-9"
         d="m 12.693529,1023.9472 c -1.059147,0 -1.910137,0.8553 -1.910137,1.9144 l 0,7.3251 -7.7556724,0 c -1.0591477,0 -1.9101388,0.851 -1.9101388,1.9101 l 0,5.4618 c 0,1.0591 0.8509911,1.9101 1.9101388,1.9101 l 7.7556724,0 0,7.1332 c 0,1.0592 0.85099,1.9144 1.910137,1.9144 l 5.461802,0 c 1.059148,0 1.910139,-0.8552 1.910139,-1.9144 l 0,-7.1332 6.702538,0 c 1.059147,0 1.914401,-0.851 1.914401,-1.9101 l 0,-5.4618 c 0,-1.0591 -0.855254,-1.9101 -1.914401,-1.9101 l -6.702538,0 0,-7.3251 c 0,-1.0591 -0.850991,-1.9144 -1.910139,-1.9144 l -5.461802,0 z"
         style="fill:#b4b4b4;fill-opacity:1;stroke:none"
         inkscape:connector-curvature="0" />
      <path
         inkscape:connector-curvature="0"
         id="rect3002-1"
         d="m 12.667194,1022.9818 c -1.059147,0 -1.910139,0.8553 -1.910139,1.9144 l 0,7.3251 -7.7556723,0 c -1.0591464,0 -1.9101375,0.851 -1.9101375,1.9101 l 0,5.4618 c 0,1.0591 0.8509911,1.9101 1.9101375,1.9101 l 7.7556723,0 0,7.1332 c 0,1.0592 0.850992,1.9144 1.910139,1.9144 l 5.461801,0 c 1.059147,0 1.910138,-0.8552 1.910138,-1.9144 l 0,-7.1332 6.702538,0 c 1.059147,0 1.914401,-0.851 1.914401,-1.9101 l 0,-5.4618 c 0,-1.0591 -0.855254,-1.9101 -1.914401,-1.9101 l -6.702538,0 0,-7.3251 c 0,-1.0591 -0.850991,-1.9144 -1.910138,-1.9144 l -5.461801,0 z"
         style="fill:#ececec;fill-opacity:1;stroke:none" />
      <path
         style="fill:#8c8c8c;fill-opacity:1;stroke:none"
         d="m 15.598982,1024.3536 2.742038,5.5398 -6.267519,0 z"
         id="path3821-5-90"
         inkscape:connector-curvature="0"
         sodipodi:nodetypes="cccc" />
      <path
         sodipodi:nodetypes="cccc"
         inkscape:connector-curvature="0"
         id="rect3807-6-1"
         d="m 15.674923,1025.1045 2.389748,4.828 -5.462284,0 z"
         style="fill:#b4b4b4;fill-opacity:1;stroke:none" />
      <path
         style="fill:#8c8c8c;fill-opacity:1;stroke:none"
         d="m 2.9137028,1036.4706 5.5397447,-2.742 0,6.2675 z"
         id="path3821-5-9-6"
         inkscape:connector-curvature="0"
         sodipodi:nodetypes="cccc" />
      <path
         sodipodi:nodetypes="cccc"
         inkscape:connector-curvature="0"
         id="rect3807-6-6-9"
         d="m 3.2817049,1036.7398 5.1167394,-2.5326 0,5.7889 z"
         style="fill:#b4b4b4;fill-opacity:1;stroke:none" />
      <path
         style="fill:#8c8c8c;fill-opacity:1;stroke:none"
         d="m 27.309394,1036.2793 -5.539744,-2.7421 0,6.2675 z"
         id="path3821-5-9-9-9"
         inkscape:connector-curvature="0"
         sodipodi:nodetypes="cccc" />
      <path
         sodipodi:nodetypes="cccc"
         inkscape:connector-curvature="0"
         id="rect3807-6-6-0-5"
         d="m 26.941392,1036.6011 -5.223243,-2.5854 0,5.9095 z"
         style="fill:#b3b3b5;fill-opacity:1;stroke:none" />
      <path
         style="fill:#8c8c8c;fill-opacity:1;stroke:none"
         d="m 15.838276,1048.6295 2.742038,-5.5398 -6.26752,0 z"
         id="path3821-5-5-5"
         inkscape:connector-curvature="0"
         sodipodi:nodetypes="cccc" />
      <path
         sodipodi:nodetypes="cccc"
         inkscape:connector-curvature="0"
         id="rect3807-6-0-7"
         d="m 15.821573,1048.6082 2.468778,-4.9877 -5.642926,0 z"
         style="fill:#b4b4b4;fill-opacity:1;stroke:none" />
    </g>
  </g>
</svg>
