<?xml version="1.0" encoding="UTF-8" standalone="no"?>
<!-- Created with Inkscape (http://www.inkscape.org/) -->

<svg
   xmlns:dc="http://purl.org/dc/elements/1.1/"
   xmlns:cc="http://creativecommons.org/ns#"
   xmlns:rdf="http://www.w3.org/1999/02/22-rdf-syntax-ns#"
   xmlns:svg="http://www.w3.org/2000/svg"
   xmlns="http://www.w3.org/2000/svg"
   xmlns:xlink="http://www.w3.org/1999/xlink"
   xmlns:sodipodi="http://sodipodi.sourceforge.net/DTD/sodipodi-0.dtd"
   xmlns:inkscape="http://www.inkscape.org/namespaces/inkscape"
   width="120"
   height="50"
   id="svg4713"
   version="1.1"
   inkscape:version="0.48.0 r9654"
   sodipodi:docname="menu-play.svg">
  <defs
     id="defs4715">
    <linearGradient
       id="linearGradient6835">
      <stop
         style="stop-color:#fffdff;stop-opacity:1;"
         offset="0"
         id="stop6837" />
      <stop
         id="stop6839"
         offset="0.55885547"
         style="stop-color:#e9e9dc;stop-opacity:0.47008547;" />
      <stop
         style="stop-color:#ebe9eb;stop-opacity:0.47843137;"
         offset="1"
         id="stop6841" />
    </linearGradient>
    <linearGradient
       id="linearGradient6835-3">
      <stop
         style="stop-color:#fffdff;stop-opacity:1;"
         offset="0"
         id="stop6837-8" />
      <stop
         id="stop6839-4"
         offset="0.55885547"
         style="stop-color:#e9e9dc;stop-opacity:0.47008547;" />
      <stop
         style="stop-color:#ebe9eb;stop-opacity:0.47843137;"
         offset="1"
         id="stop6841-8" />
    </linearGradient>
    <linearGradient
       id="linearGradient6835-8">
      <stop
         style="stop-color:#fffdff;stop-opacity:1;"
         offset="0"
         id="stop6837-0" />
      <stop
         id="stop6839-2"
         offset="0.55885547"
         style="stop-color:#e9e9dc;stop-opacity:0.47008547;" />
      <stop
         style="stop-color:#ebe9eb;stop-opacity:0.47843137;"
         offset="1"
         id="stop6841-6" />
    </linearGradient>
    <linearGradient
       inkscape:collect="always"
       xlink:href="#linearGradient7024"
       id="linearGradient6833"
       x1="71.44149"
       y1="455.69241"
       x2="69.126175"
       y2="821.10596"
       gradientUnits="userSpaceOnUse"
       gradientTransform="matrix(0.59809784,0,0,0.59809784,-70.881553,100.2845)" />
    <linearGradient
       id="linearGradient7024">
      <stop
         id="stop7026"
         offset="0"
         style="stop-color:#fffdff;stop-opacity:1;" />
      <stop
         style="stop-color:#e9e9dc;stop-opacity:0.47008547;"
         offset="0.64915252"
         id="stop7028" />
      <stop
         id="stop7030"
         offset="1"
         style="stop-color:#ebe9eb;stop-opacity:0.47843137;" />
    </linearGradient>
    <linearGradient
       inkscape:collect="always"
       xlink:href="#linearGradient6793"
       id="linearGradient6791"
       gradientUnits="userSpaceOnUse"
       x1="20.49468"
       y1="329.34143"
       x2="20.56259"
       y2="759.99249"
       gradientTransform="matrix(0.59809784,0,0,0.59809784,-47.530766,116.14352)" />
    <linearGradient
       id="linearGradient6793">
      <stop
         id="stop6795"
         offset="0"
         style="stop-color:#fffdff;stop-opacity:1;" />
      <stop
         style="stop-color:#e9e9dc;stop-opacity:0.47008547;"
         offset="0.79657274"
         id="stop6797" />
      <stop
         id="stop6799"
         offset="1"
         style="stop-color:#ebe9eb;stop-opacity:0.47843137;" />
    </linearGradient>
    <linearGradient
       inkscape:collect="always"
       xlink:href="#linearGradient6793"
       id="linearGradient4013"
       gradientUnits="userSpaceOnUse"
       gradientTransform="matrix(0.56405516,0,0,0.56405516,45.630437,819.84225)"
       x1="20.49468"
       y1="329.34143"
       x2="22.105392"
       y2="564.05652" />
  </defs>
  <sodipodi:namedview
     id="base"
     pagecolor="#ffffff"
     bordercolor="#666666"
     borderopacity="1.0"
     inkscape:pageopacity="0.0"
     inkscape:pageshadow="2"
     inkscape:zoom="1.1491267"
     inkscape:cx="73.13059"
     inkscape:cy="28.023209"
     inkscape:document-units="px"
     inkscape:current-layer="layer1"
     showgrid="false"
     inkscape:window-width="1010"
     inkscape:window-height="706"
     inkscape:window-x="52"
     inkscape:window-y="22"
     inkscape:window-maximized="0" />
  <metadata
     id="metadata4718">
    <rdf:RDF>
      <cc:Work
         rdf:about="">
        <dc:format>image/svg+xml</dc:format>
        <dc:type
           rdf:resource="http://purl.org/dc/dcmitype/StillImage" />
        <dc:title />
      </cc:Work>
    </rdf:RDF>
  </metadata>
  <g
     inkscape:label="Layer 1"
     inkscape:groupmode="layer"
     id="layer1"
     transform="translate(0,-1002.3622)">
    <g
       style="opacity:0.25431034;fill:#000000;fill-opacity:1;stroke:none"
       id="g6777"
       transform="matrix(0.60009469,0,0,0.60009469,47.357266,806.94448)">
      <path
         id="path6779"
         d="m 99.722508,325.8905 -7.293348,16.6688 -7.938552,-12.83671 -21.176248,11.93706 18.475362,30.06166 -2.690947,33.35734 28.820185,1.1564 -2.00645,-37.10454 14.89458,-28.96744 z m -48.52738,5.87078 -26.430921,2.62287 -8.892406,67.3567 25.686202,-1.2105 -1.227368,-18.42636 4.914897,-0.16808 8.555269,21.52262 23.931325,-2.73978 z m -79.127104,1.14837 -48.570534,1.64459 0.238504,73.77801 28.980061,-1.29924 -6.348907,-32.30151 21.440035,-3.60799 z m 1.687948,5.29981 -5.052378,68.06384 43.858906,-2.36454 2.246446,-22.06691 -23.8550996,-0.59594 8.24469666,-39.3333 z m -25.143197,8.99362 0.604663,9.89245 -6.767154,1.95831 1.127963,-11.16013 z m 93.311057,7.07533 1.822394,8.11577 -5.136406,0.57342 -1.090204,-8.39644 z"
         style="fill:#000000;fill-opacity:1;stroke:none"
         inkscape:connector-curvature="0"
         sodipodi:nodetypes="ccccccccccccccccccccccccccccccccccccccccccc" />
    </g>
    <path
       inkscape:connector-curvature="0"
       id="path5692"
       d="m 107.83594,1004.6808 -4.72633,10.7908 -5.678182,-8.4656 -9.333455,5.5709 10.2932,16.7534 -1.921305,19.3382 13.193702,0.1072 -1.54877,-21.0839 8.7581,-16.6542 z m -30.904401,3.2218 -12.967725,1.1472 -5.042828,36.2206 10.840436,0 -0.75795,-10.8405 6.610021,-0.5992 4.917857,13.0791 10.593664,-1.04 z m -47.998364,-0.068 -25.5011179,1.0912 -0.2467762,40.8571 13.3210571,-0.5648 -4.105444,-18.6523 13.783306,-3.1729 z m 4.376184,4.7911 -3.102305,35.6236 22.509326,-1.5335 0.757948,-9.2893 -14.753568,-0.017 5.429032,-24.0252 -10.840433,-0.758 z m -15.617283,0.5993 1.110488,8.5138 -8.266932,2.503 1.092853,-10.3293 z m 56.123492,4.1952 1.656913,7.7205 -7.156451,1.0929 -0.546428,-8.267 z"
       style="fill:url(#linearGradient4013);fill-opacity:1;stroke:none"
       sodipodi:nodetypes="cccccccccccccccccccccccccccccccccccccccccccc" />
    <path
       style="opacity:0.09913791;fill:#000000;fill-opacity:1;stroke:none"
       d="m 109.50888,1005.5022 -5.95648,12.8382 -6.669476,-8.9509 -6.269661,3.664 9.548187,16.0798 -2.189432,20.267 12.367132,0.089 -1.16922,-21.4258 8.84344,-16.1934 z m -31.494086,4.6655 -12.714113,0.3408 -4.919237,35.9726 10.27963,-0.5017 -0.644275,-10.7959 7.741307,-0.8946 4.845139,13.4066 9.09255,-1.1128 z m -48.720892,-1.1336 -24.1920836,1.5775 -0.654137,40.6897 12.8672126,-0.9772 -3.937872,-19.3649 13.297284,-2.8083 z m 5.463643,5.6035 -3.488815,35.1407 22.70581,-1.393 0.612029,-9.4159 -15.413155,0.1333 5.242474,-24.0979 z m -15.875606,-0.3172 1.546293,8.9182 -8.537767,1.7459 0.907252,-10.2069 z m 56.659854,3.9891 1.857187,8.4957 -7.889824,1.0512 -0.571169,-9.19 z"
       id="path6785"
       inkscape:connector-curvature="0"
       sodipodi:nodetypes="ccccccccccccccccccccccccccccccccccccccccccc" />
  </g>
</svg>
