<?xml version="1.0" encoding="UTF-8" standalone="no"?>
<!-- Created with Inkscape (http://www.inkscape.org/) -->

<svg
   xmlns:dc="http://purl.org/dc/elements/1.1/"
   xmlns:cc="http://creativecommons.org/ns#"
   xmlns:rdf="http://www.w3.org/1999/02/22-rdf-syntax-ns#"
   xmlns:svg="http://www.w3.org/2000/svg"
   xmlns="http://www.w3.org/2000/svg"
   xmlns:xlink="http://www.w3.org/1999/xlink"
   xmlns:sodipodi="http://sodipodi.sourceforge.net/DTD/sodipodi-0.dtd"
   xmlns:inkscape="http://www.inkscape.org/namespaces/inkscape"
   width="30"
   height="30"
   id="svg4404"
   version="1.1"
   inkscape:version="0.48.0 r9654"
   sodipodi:docname="restart.svg"
   inkscape:export-filename="/home/mattias/work/slippy/game-reload.png"
   inkscape:export-xdpi="90"
   inkscape:export-ydpi="90">
  <defs
     id="defs4406">
    <marker
       inkscape:stockid="TriangleOutL"
       orient="auto"
       refY="0"
       refX="0"
       id="TriangleOutL"
       style="overflow:visible">
      <path
         id="path5072"
         d="m 5.77,0 -8.65,5 0,-10 8.65,5 z"
         style="fill-rule:evenodd;stroke:#000000;stroke-width:1pt;marker-start:none"
         transform="scale(0.8,0.8)" />
    </marker>
    <marker
       inkscape:stockid="Arrow2Lend"
       orient="auto"
       refY="0"
       refX="0"
       id="Arrow2Lend"
       style="overflow:visible">
      <path
         id="path4950"
         style="font-size:12px;fill-rule:evenodd;stroke-width:0.625;stroke-linejoin:round"
         d="M 8.7185878,4.0337352 -2.2072895,0.01601326 8.7185884,-4.0017078 c -1.7454984,2.3720609 -1.7354408,5.6174519 -6e-7,8.035443 z"
         transform="matrix(-1.1,0,0,-1.1,-1.1,0)" />
    </marker>
    <marker
       inkscape:stockid="Arrow1Lstart"
       orient="auto"
       refY="0"
       refX="0"
       id="Arrow1Lstart"
       style="overflow:visible">
      <path
         id="path4929"
         d="M 0,0 5,-5 -12.5,0 5,5 0,0 z"
         style="fill-rule:evenodd;stroke:#000000;stroke-width:1pt;marker-start:none"
         transform="matrix(0.8,0,0,0.8,10,0)" />
    </marker>
    <inkscape:perspective
       sodipodi:type="inkscape:persp3d"
       inkscape:vp_x="0 : 526.18109 : 1"
       inkscape:vp_y="0 : 1000 : 0"
       inkscape:vp_z="744.09448 : 526.18109 : 1"
       inkscape:persp3d-origin="372.04724 : 350.78739 : 1"
       id="perspective4412" />
    <inkscape:perspective
       id="perspective6128"
       inkscape:persp3d-origin="0.5 : 0.33333333 : 1"
       inkscape:vp_z="1 : 0.5 : 1"
       inkscape:vp_y="0 : 1000 : 0"
       inkscape:vp_x="0 : 0.5 : 1"
       sodipodi:type="inkscape:persp3d" />
    <marker
       inkscape:stockid="TriangleOutL"
       orient="auto"
       refY="0"
       refX="0"
       id="TriangleOutL-0"
       style="overflow:visible">
      <path
         id="path5072-2"
         d="m 5.77,0 -8.65,5 0,-10 8.65,5 z"
         style="fill-rule:evenodd;stroke:#000000;stroke-width:1pt;marker-start:none"
         transform="scale(0.8,0.8)" />
    </marker>
    <inkscape:perspective
       id="perspective6189"
       inkscape:persp3d-origin="0.5 : 0.33333333 : 1"
       inkscape:vp_z="1 : 0.5 : 1"
       inkscape:vp_y="0 : 1000 : 0"
       inkscape:vp_x="0 : 0.5 : 1"
       sodipodi:type="inkscape:persp3d" />
    <inkscape:perspective
       id="perspective4110"
       inkscape:persp3d-origin="0.5 : 0.33333333 : 1"
       inkscape:vp_z="1 : 0.5 : 1"
       inkscape:vp_y="0 : 1000 : 0"
       inkscape:vp_x="0 : 0.5 : 1"
       sodipodi:type="inkscape:persp3d" />
    <inkscape:perspective
       id="perspective4138"
       inkscape:persp3d-origin="0.5 : 0.33333333 : 1"
       inkscape:vp_z="1 : 0.5 : 1"
       inkscape:vp_y="0 : 1000 : 0"
       inkscape:vp_x="0 : 0.5 : 1"
       sodipodi:type="inkscape:persp3d" />
    <inkscape:perspective
       id="perspective4264"
       inkscape:persp3d-origin="0.5 : 0.33333333 : 1"
       inkscape:vp_z="1 : 0.5 : 1"
       inkscape:vp_y="0 : 1000 : 0"
       inkscape:vp_x="0 : 0.5 : 1"
       sodipodi:type="inkscape:persp3d" />
    <inkscape:perspective
       id="perspective3816"
       inkscape:persp3d-origin="0.5 : 0.33333333 : 1"
       inkscape:vp_z="1 : 0.5 : 1"
       inkscape:vp_y="0 : 1000 : 0"
       inkscape:vp_x="0 : 0.5 : 1"
       sodipodi:type="inkscape:persp3d" />
    <inkscape:perspective
       id="perspective6785"
       inkscape:persp3d-origin="0.5 : 0.33333333 : 1"
       inkscape:vp_z="1 : 0.5 : 1"
       inkscape:vp_y="0 : 1000 : 0"
       inkscape:vp_x="0 : 0.5 : 1"
       sodipodi:type="inkscape:persp3d" />
    <inkscape:perspective
       id="perspective6813"
       inkscape:persp3d-origin="0.5 : 0.33333333 : 1"
       inkscape:vp_z="1 : 0.5 : 1"
       inkscape:vp_y="0 : 1000 : 0"
       inkscape:vp_x="0 : 0.5 : 1"
       sodipodi:type="inkscape:persp3d" />
    <inkscape:perspective
       id="perspective6841"
       inkscape:persp3d-origin="0.5 : 0.33333333 : 1"
       inkscape:vp_z="1 : 0.5 : 1"
       inkscape:vp_y="0 : 1000 : 0"
       inkscape:vp_x="0 : 0.5 : 1"
       sodipodi:type="inkscape:persp3d" />
    <inkscape:perspective
       id="perspective6869"
       inkscape:persp3d-origin="0.5 : 0.33333333 : 1"
       inkscape:vp_z="1 : 0.5 : 1"
       inkscape:vp_y="0 : 1000 : 0"
       inkscape:vp_x="0 : 0.5 : 1"
       sodipodi:type="inkscape:persp3d" />
    <inkscape:perspective
       id="perspective11140"
       inkscape:persp3d-origin="0.5 : 0.33333333 : 1"
       inkscape:vp_z="1 : 0.5 : 1"
       inkscape:vp_y="0 : 1000 : 0"
       inkscape:vp_x="0 : 0.5 : 1"
       sodipodi:type="inkscape:persp3d" />
    <inkscape:perspective
       id="perspective11168"
       inkscape:persp3d-origin="0.5 : 0.33333333 : 1"
       inkscape:vp_z="1 : 0.5 : 1"
       inkscape:vp_y="0 : 1000 : 0"
       inkscape:vp_x="0 : 0.5 : 1"
       sodipodi:type="inkscape:persp3d" />
    <inkscape:perspective
       id="perspective11196"
       inkscape:persp3d-origin="0.5 : 0.33333333 : 1"
       inkscape:vp_z="1 : 0.5 : 1"
       inkscape:vp_y="0 : 1000 : 0"
       inkscape:vp_x="0 : 0.5 : 1"
       sodipodi:type="inkscape:persp3d" />
    <linearGradient
       y2="1058.2463"
       x2="-11.059908"
       y1="1036.3398"
       x1="-11.059908"
       gradientTransform="matrix(0.96027498,0,0,0.96027498,26.106677,31.654612)"
       gradientUnits="userSpaceOnUse"
       id="linearGradient4325"
       xlink:href="#linearGradient4902"
       inkscape:collect="always" />
    <linearGradient
       id="linearGradient3731">
      <stop
         id="stop3733"
         offset="0"
         style="stop-color:#e5f7fc;stop-opacity:1;" />
      <stop
         id="stop3735"
         offset="1"
         style="stop-color:#129dca;stop-opacity:1;" />
    </linearGradient>
    <radialGradient
       gradientUnits="userSpaceOnUse"
       gradientTransform="matrix(0,0.9087458,-2.1879849,-0.00236523,1839.3492,-42.412175)"
       r="240"
       fy="734.67993"
       fx="790.62836"
       cy="734.67993"
       cx="790.62836"
       id="radialGradient3741"
       xlink:href="#linearGradient3731"
       inkscape:collect="always" />
    <inkscape:perspective
       sodipodi:type="inkscape:persp3d"
       inkscape:vp_x="0 : 0.5 : 1"
       inkscape:vp_y="0 : 1000 : 0"
       inkscape:vp_z="1 : 0.5 : 1"
       inkscape:persp3d-origin="0.5 : 0.33333333 : 1"
       id="perspective4143" />
    <linearGradient
       gradientTransform="matrix(0.96027498,0,0,0.96027498,26.106677,31.654612)"
       gradientUnits="userSpaceOnUse"
       y2="1058.2463"
       x2="-11.059908"
       y1="1036.3398"
       x1="-11.059908"
       id="linearGradient3930"
       xlink:href="#linearGradient4902"
       inkscape:collect="always" />
    <inkscape:perspective
       sodipodi:type="inkscape:persp3d"
       inkscape:vp_x="0 : 0.5 : 1"
       inkscape:vp_y="0 : 1000 : 0"
       inkscape:vp_z="1 : 0.5 : 1"
       inkscape:persp3d-origin="0.5 : 0.33333333 : 1"
       id="perspective3901-6" />
    <inkscape:perspective
       sodipodi:type="inkscape:persp3d"
       inkscape:vp_x="0 : 0.5 : 1"
       inkscape:vp_y="0 : 1000 : 0"
       inkscape:vp_z="1 : 0.5 : 1"
       inkscape:persp3d-origin="0.5 : 0.33333333 : 1"
       id="perspective3901" />
    <linearGradient
       gradientTransform="translate(-5.9665443,22.808169)"
       y2="1011.8889"
       x2="3.2585046"
       y1="1011.8889"
       x1="-23.890699"
       gradientUnits="userSpaceOnUse"
       id="linearGradient3888"
       xlink:href="#linearGradient3872"
       inkscape:collect="always" />
    <linearGradient
       gradientTransform="translate(-5.9665443,22.808169)"
       y2="1011.8889"
       x2="3.2585046"
       y1="1011.8889"
       x1="-23.890699"
       gradientUnits="userSpaceOnUse"
       id="linearGradient3885"
       xlink:href="#linearGradient3872"
       inkscape:collect="always" />
    <linearGradient
       y2="1011.8889"
       x2="3.2585046"
       y1="1011.8889"
       x1="-23.890699"
       gradientUnits="userSpaceOnUse"
       id="linearGradient3882"
       xlink:href="#linearGradient3872"
       inkscape:collect="always" />
    <linearGradient
       y2="1011.8889"
       x2="3.2585046"
       y1="1011.8889"
       x1="-23.890699"
       gradientUnits="userSpaceOnUse"
       id="linearGradient3880"
       xlink:href="#linearGradient3872"
       inkscape:collect="always" />
    <linearGradient
       gradientUnits="userSpaceOnUse"
       y2="1011.8889"
       x2="3.2585046"
       y1="1011.8889"
       x1="-23.890699"
       id="linearGradient3878"
       xlink:href="#linearGradient3872"
       inkscape:collect="always" />
    <inkscape:perspective
       sodipodi:type="inkscape:persp3d"
       inkscape:vp_x="0 : 0.5 : 1"
       inkscape:vp_y="0 : 1000 : 0"
       inkscape:vp_z="1 : 0.5 : 1"
       inkscape:persp3d-origin="0.5 : 0.33333333 : 1"
       id="perspective3043-0" />
    <inkscape:perspective
       sodipodi:type="inkscape:persp3d"
       inkscape:vp_x="0 : 0.5 : 1"
       inkscape:vp_y="0 : 1000 : 0"
       inkscape:vp_z="1 : 0.5 : 1"
       inkscape:persp3d-origin="0.5 : 0.33333333 : 1"
       id="perspective3043" />
    <linearGradient
       id="linearGradient4902">
      <stop
         style="stop-color:#ffffff;stop-opacity:1;"
         offset="0"
         id="stop4904" />
      <stop
         id="stop4906"
         offset="1"
         style="stop-color:#f0f0f0;stop-opacity:1;" />
    </linearGradient>
    <linearGradient
       gradientTransform="matrix(1.08455,0,0,1.08455,-91.146771,-115.13459)"
       gradientUnits="userSpaceOnUse"
       y2="1063.1007"
       x2="44.479168"
       y1="1040.0704"
       x1="44.479168"
       id="linearGradient4900"
       xlink:href="#linearGradient4902"
       inkscape:collect="always" />
    <inkscape:perspective
       sodipodi:type="inkscape:persp3d"
       inkscape:vp_x="0 : 0.5 : 1"
       inkscape:vp_y="0 : 1000 : 0"
       inkscape:vp_z="1 : 0.5 : 1"
       inkscape:persp3d-origin="0.5 : 0.33333333 : 1"
       id="perspective3000" />
    <inkscape:perspective
       sodipodi:type="inkscape:persp3d"
       inkscape:vp_x="0 : 0.5 : 1"
       inkscape:vp_y="0 : 1000 : 0"
       inkscape:vp_z="1 : 0.5 : 1"
       inkscape:persp3d-origin="0.5 : 0.33333333 : 1"
       id="perspective11196-4" />
    <inkscape:perspective
       sodipodi:type="inkscape:persp3d"
       inkscape:vp_x="0 : 0.5 : 1"
       inkscape:vp_y="0 : 1000 : 0"
       inkscape:vp_z="1 : 0.5 : 1"
       inkscape:persp3d-origin="0.5 : 0.33333333 : 1"
       id="perspective11168-4" />
    <inkscape:perspective
       sodipodi:type="inkscape:persp3d"
       inkscape:vp_x="0 : 0.5 : 1"
       inkscape:vp_y="0 : 1000 : 0"
       inkscape:vp_z="1 : 0.5 : 1"
       inkscape:persp3d-origin="0.5 : 0.33333333 : 1"
       id="perspective11140-9" />
    <inkscape:perspective
       sodipodi:type="inkscape:persp3d"
       inkscape:vp_x="0 : 0.5 : 1"
       inkscape:vp_y="0 : 1000 : 0"
       inkscape:vp_z="1 : 0.5 : 1"
       inkscape:persp3d-origin="0.5 : 0.33333333 : 1"
       id="perspective6869-9" />
    <inkscape:perspective
       sodipodi:type="inkscape:persp3d"
       inkscape:vp_x="0 : 0.5 : 1"
       inkscape:vp_y="0 : 1000 : 0"
       inkscape:vp_z="1 : 0.5 : 1"
       inkscape:persp3d-origin="0.5 : 0.33333333 : 1"
       id="perspective6841-9" />
    <inkscape:perspective
       sodipodi:type="inkscape:persp3d"
       inkscape:vp_x="0 : 0.5 : 1"
       inkscape:vp_y="0 : 1000 : 0"
       inkscape:vp_z="1 : 0.5 : 1"
       inkscape:persp3d-origin="0.5 : 0.33333333 : 1"
       id="perspective6813-7" />
    <inkscape:perspective
       sodipodi:type="inkscape:persp3d"
       inkscape:vp_x="0 : 0.5 : 1"
       inkscape:vp_y="0 : 1000 : 0"
       inkscape:vp_z="1 : 0.5 : 1"
       inkscape:persp3d-origin="0.5 : 0.33333333 : 1"
       id="perspective6785-0" />
    <inkscape:perspective
       sodipodi:type="inkscape:persp3d"
       inkscape:vp_x="0 : 0.5 : 1"
       inkscape:vp_y="0 : 1000 : 0"
       inkscape:vp_z="1 : 0.5 : 1"
       inkscape:persp3d-origin="0.5 : 0.33333333 : 1"
       id="perspective3816-3" />
    <inkscape:perspective
       sodipodi:type="inkscape:persp3d"
       inkscape:vp_x="0 : 0.5 : 1"
       inkscape:vp_y="0 : 1000 : 0"
       inkscape:vp_z="1 : 0.5 : 1"
       inkscape:persp3d-origin="0.5 : 0.33333333 : 1"
       id="perspective4264-4" />
    <inkscape:perspective
       sodipodi:type="inkscape:persp3d"
       inkscape:vp_x="0 : 0.5 : 1"
       inkscape:vp_y="0 : 1000 : 0"
       inkscape:vp_z="1 : 0.5 : 1"
       inkscape:persp3d-origin="0.5 : 0.33333333 : 1"
       id="perspective4138-4" />
    <inkscape:perspective
       sodipodi:type="inkscape:persp3d"
       inkscape:vp_x="0 : 0.5 : 1"
       inkscape:vp_y="0 : 1000 : 0"
       inkscape:vp_z="1 : 0.5 : 1"
       inkscape:persp3d-origin="0.5 : 0.33333333 : 1"
       id="perspective4110-7" />
    <inkscape:perspective
       sodipodi:type="inkscape:persp3d"
       inkscape:vp_x="0 : 0.5 : 1"
       inkscape:vp_y="0 : 1000 : 0"
       inkscape:vp_z="1 : 0.5 : 1"
       inkscape:persp3d-origin="0.5 : 0.33333333 : 1"
       id="perspective6189-3" />
    <marker
       style="overflow:visible"
       id="TriangleOutL-0-1"
       refX="0"
       refY="0"
       orient="auto"
       inkscape:stockid="TriangleOutL">
      <path
         transform="scale(0.8,0.8)"
         style="fill-rule:evenodd;stroke:#000000;stroke-width:1pt;marker-start:none"
         d="m 5.77,0 -8.65,5 0,-10 8.65,5 z"
         id="path5072-2-4" />
    </marker>
    <inkscape:perspective
       sodipodi:type="inkscape:persp3d"
       inkscape:vp_x="0 : 0.5 : 1"
       inkscape:vp_y="0 : 1000 : 0"
       inkscape:vp_z="1 : 0.5 : 1"
       inkscape:persp3d-origin="0.5 : 0.33333333 : 1"
       id="perspective6128-1" />
    <inkscape:perspective
       id="perspective4412-2"
       inkscape:persp3d-origin="372.04724 : 350.78739 : 1"
       inkscape:vp_z="744.09448 : 526.18109 : 1"
       inkscape:vp_y="0 : 1000 : 0"
       inkscape:vp_x="0 : 526.18109 : 1"
       sodipodi:type="inkscape:persp3d" />
    <marker
       style="overflow:visible"
       id="Arrow1Lstart-7"
       refX="0"
       refY="0"
       orient="auto"
       inkscape:stockid="Arrow1Lstart">
      <path
         transform="matrix(0.8,0,0,0.8,10,0)"
         style="fill-rule:evenodd;stroke:#000000;stroke-width:1pt;marker-start:none"
         d="M 0,0 5,-5 -12.5,0 5,5 0,0 z"
         id="path4929-0" />
    </marker>
    <marker
       style="overflow:visible"
       id="Arrow2Lend-6"
       refX="0"
       refY="0"
       orient="auto"
       inkscape:stockid="Arrow2Lend">
      <path
         transform="matrix(-1.1,0,0,-1.1,-1.1,0)"
         d="M 8.7185878,4.0337352 -2.2072895,0.01601326 8.7185884,-4.0017078 c -1.7454984,2.3720609 -1.7354408,5.6174519 -6e-7,8.035443 z"
         style="font-size:12px;fill-rule:evenodd;stroke-width:0.625;stroke-linejoin:round"
         id="path4950-7" />
    </marker>
    <marker
       style="overflow:visible"
       id="TriangleOutL-5"
       refX="0"
       refY="0"
       orient="auto"
       inkscape:stockid="TriangleOutL">
      <path
         transform="scale(0.8,0.8)"
         style="fill-rule:evenodd;stroke:#000000;stroke-width:1pt;marker-start:none"
         d="m 5.77,0 -8.65,5 0,-10 8.65,5 z"
         id="path5072-7" />
    </marker>
    <linearGradient
       id="linearGradient3872"
       inkscape:collect="always">
      <stop
         id="stop3874"
         offset="0"
         style="stop-color:#000000;stop-opacity:1;" />
      <stop
         id="stop3876"
         offset="1"
         style="stop-color:#000000;stop-opacity:0;" />
    </linearGradient>
    <linearGradient
       inkscape:collect="always"
       xlink:href="#linearGradient4902"
       id="linearGradient5448"
       gradientUnits="userSpaceOnUse"
       gradientTransform="matrix(-0.96027498,0,0,0.96027498,-55.839197,6.4087558)"
       x1="-11.059908"
       y1="1036.3398"
       x2="-11.059908"
       y2="1058.2463" />
    <linearGradient
       inkscape:collect="always"
       xlink:href="#linearGradient4902"
       id="linearGradient5665"
       x1="7.0124931"
       y1="1039.8121"
       x2="7.0374455"
       y2="1071.1614"
       gradientUnits="userSpaceOnUse"
       gradientTransform="matrix(0.8017914,0,0,0.8017914,-31.681187,176.51384)" />
    <linearGradient
       inkscape:collect="always"
       xlink:href="#linearGradient4902"
       id="linearGradient5731"
       x1="-19.139185"
       y1="1065.2026"
       x2="-19.716282"
       y2="1029.5183"
       gradientUnits="userSpaceOnUse"
       gradientTransform="matrix(0.85713282,0,0,0.85713282,32.250371,142.2912)" />
    <linearGradient
       inkscape:collect="always"
       xlink:href="#linearGradient4902"
       id="linearGradient3937"
       x1="15.774622"
       y1="1026.3541"
       x2="15.275818"
       y2="1050.3198"
       gradientUnits="userSpaceOnUse"
       gradientTransform="translate(-0.23267656,-0.58169135)" />
  </defs>
  <sodipodi:namedview
     id="base"
     pagecolor="#ffffff"
     bordercolor="#666666"
     borderopacity="1.0"
     inkscape:pageopacity="0"
     inkscape:pageshadow="2"
     inkscape:zoom="8.5956232"
     inkscape:cx="-2.4062547"
     inkscape:cy="11.01998"
     inkscape:document-units="px"
     inkscape:current-layer="layer1"
     showgrid="false"
     inkscape:window-width="1323"
     inkscape:window-height="905"
     inkscape:window-x="56"
     inkscape:window-y="50"
     inkscape:window-maximized="0"
     borderlayer="false"
     showguides="true"
     inkscape:guide-bbox="true" />
  <metadata
     id="metadata4409">
    <rdf:RDF>
      <cc:Work
         rdf:about="">
        <dc:format>image/svg+xml</dc:format>
        <dc:type
           rdf:resource="http://purl.org/dc/dcmitype/StillImage" />
        <dc:title />
      </cc:Work>
    </rdf:RDF>
  </metadata>
  <g
     inkscape:label="Layer 1"
     inkscape:groupmode="layer"
     id="layer1"
     transform="translate(0,-1022.3622)">
    <path
       style="opacity:0.57327588;fill:#000000;fill-opacity:1;fill-rule:evenodd;stroke:none;stroke-width:1.11999998pt;marker-start:none"
       d="m -26.831955,1010.9328 -0.02506,2.3553 c -5.651811,0.273 -11.122039,5.2608 -11.011583,11.3707 0.107879,5.9672 4.328118,11.6729 11.817608,11.5442 5.76916,-0.099 11.448122,-5.6989 11.448122,-11.0515 l -3.662407,0.2463 c 0,3.1926 -3.1075,7.3179 -7.662551,7.0197 -7.864979,-0.515 -8.032039,-4.4428 -8.032039,-7.6355 0,-5.2813 3.894334,-7.7153 7.027682,-7.485 l -0.02505,2.5306 7.79241,-4.3597 z"
       id="path6154-6"
       inkscape:connector-curvature="0"
       sodipodi:nodetypes="ccssccsscccc" />
    <path
       inkscape:connector-curvature="0"
       id="path5578"
       d="m -27.870222,1009.578 -0.03085,2.9002 c -6.049623,0.6396 -10.829659,5.7203 -10.829659,11.8786 0,7.0838 5.479178,11.9406 12.125516,11.9406 6.646337,0 12.125518,-5.3494 12.125518,-11.9406 l -4.813183,0 c 0,3.9313 -3.219402,7.1273 -7.312335,7.1273 -2.738139,0 -7.066007,-2.0874 -7.312333,-7.1273 -0.169401,-3.466 2.520521,-6.3157 5.923915,-6.942 l -0.03085,3.1163 9.595509,-5.3687 z"
       style="opacity:0.375;fill:#000000;fill-opacity:1;fill-rule:evenodd;stroke:none;stroke-width:1.11999998pt;marker-start:none"
       sodipodi:nodetypes="ccssccsscccc" />
    <path
       sodipodi:nodetypes="ccssccsscccc"
       inkscape:connector-curvature="0"
       id="path5657"
       d="m -26.96716,1009.973 -0.02506,2.3553 c -5.651813,0.2731 -11.12204,5.2609 -11.011584,11.3708 0.107879,5.9672 4.328118,11.6728 11.817608,11.5442 5.76916,-0.099 11.448122,-5.699 11.448122,-11.0515 l -3.662407,0.2463 c 0,3.1926 -3.110038,7.3544 -7.662551,7.0195 -7.002837,-0.5149 -8.032039,-4.4428 -8.032039,-7.6354 0,-5.2813 3.894335,-7.7153 7.027682,-7.4849 l -0.02505,2.5306 7.792409,-4.3597 z"
       style="fill:url(#linearGradient5665);fill-opacity:1;fill-rule:evenodd;stroke:none;stroke-width:1.11999998pt;marker-start:none" />
    <path
       style="fill:#000000;fill-opacity:1;fill-rule:evenodd;stroke:none;stroke-width:1.11999998pt;marker-start:none"
       d="m -6.7106559,994.92641 -0.02506,2.3553 c -5.6518131,0.2731 -11.1220401,5.26089 -11.0115841,11.37079 0.107879,5.9672 4.328118,11.6728 11.8176081,11.5442 5.76916013,-0.099 11.4481211,-5.699 11.4481211,-11.0515 l -3.662407,0.2463 c 0,3.1926 -3.110037,7.3544 -7.6625501,7.0195 -7.0028381,-0.5149 -8.0320391,-4.4428 -8.0320391,-7.6354 0,-5.2813 3.8943351,-7.7153 7.0276821,-7.4849 l -0.02505,2.5306 7.79240913,-4.35969 z"
       id="path5667"
       inkscape:connector-curvature="0"
       sodipodi:nodetypes="ccssccsscccc" />
    <path
       style="opacity:0.34579438;fill:#000000;fill-opacity:1"
       d="m 14.619735,1025.5497 c -2.478309,0.074 -4.9658411,0.8684 -6.9374998,2.375 -1.4128045,1.0796 -2.4796614,2.5021 -3.1875,4.125 l 5.8124998,3.6563 c 0.186432,-1.0481 0.672295,-2.0375 1.59375,-2.75 1.608527,-1.2436 4.088571,-1.7428 6.03125,0.2187 l -2.8125,2.0625 12.6875,5.625 -1.40625,-14.5312 -3.34375,2.5937 c -2.072388,-2.3642 -5.251103,-3.4702 -8.4375,-3.375 z m -12.6249998,8.5313 1.625,14.4687 3.3125,-2.625 c 2.1115314,2.3293 5.2843868,3.3672 8.4687498,3.2188 2.476756,-0.1145 4.959996,-0.9608 6.90625,-2.5 1.394607,-1.1029 2.444333,-2.553 3.125,-4.1875 l -5.875,-3.5313 c -0.168925,1.051 -0.6218,2.0537 -1.53125,2.7813 -1.587559,1.2703 -4.056124,1.8038 -6.03125,-0.125 l 2.75,-2.0938 -12.7499998,-5.4062 z"
       id="path3899"
       inkscape:connector-curvature="0" />
    <path
       style="fill:url(#linearGradient3937);fill-opacity:1"
       d="m 15.298574,1025.5843 c -2.304183,-0.051 -4.636555,0.6407 -6.6250005,2.125 -1.2735729,0.9507 -2.2531929,2.1284 -2.96875,3.4375 l 4.3437495,2.7813 c 0.376422,-0.8062 0.924699,-1.5556 1.687501,-2.125 2.270721,-1.6951 5.42329,-1.3582 7.34375,0.625 l -2.78125,2.0625 10.84375,5 -1.0625,-12.2813 -2.875,2.125 c -2.04577,-2.3871 -4.943728,-3.684 -7.90625,-3.75 z m -12.4375005,9.0938 1.59375,12.2187 2.75,-2.25 c 3.8129195,4.0865 10.2273245,4.6129 14.6250005,1.0313 1.232329,-1.0036 2.152859,-2.2245 2.8125,-3.5625 l -4.46875,-2.625 c -0.341962,0.8213 -0.855625,1.5865 -1.59375,2.1875 -2.197087,1.7893 -5.372406,1.6191 -7.375,-0.2813 l 2.6875,-2.1875 -11.0312505,-4.5312 z"
       id="path5711"
       inkscape:connector-curvature="0" />
    <path
       style="opacity:0.34579438;fill:#000000;fill-opacity:1"
       d="m -24.457985,1041.0222 c -2.478309,0.074 -4.97591,0.8712 -6.947569,2.3778 -1.412805,1.0796 -2.479891,2.5134 -3.18773,4.1363 l 5.803514,3.6498 c 0.186432,-1.0481 0.672348,-2.0433 1.593803,-2.7558 1.608527,-1.2436 4.094843,-1.7554 6.037522,0.2061 l -2.79739,2.0643 12.662713,5.6189 -1.393685,-14.5032 -3.348338,2.577 c -2.072388,-2.3642 -5.236443,-3.4664 -8.42284,-3.3712 z"
       id="path3901"
       inkscape:connector-curvature="0" />
    <path
       style="opacity:0.57476633;fill:#000000;fill-opacity:1"
       d="m -34.754808,1062.8488 2.762263,-2.2497 c 3.812919,4.0865 10.204166,4.586 14.601842,1.0044 1.232329,-1.0036 2.16928,-2.2155 2.828921,-3.5535 l -4.464203,-2.6111 c -0.341962,0.8213 -0.863074,1.5898 -1.601199,2.1908 -2.197087,1.7893 -5.364762,1.6135 -7.367356,-0.2869 l 2.689569,-2.1906 -11.040751,-4.5497 1.590914,12.2463 z"
       id="path3903"
       inkscape:connector-curvature="0" />
    <path
       id="path3905"
       d="m -13.133565,1043.1394 -2.854801,2.1308 c -3.636924,-4.2438 -10.001373,-5.0129 -14.546393,-1.6202 -1.273573,0.9507 -2.260937,2.1218 -2.976494,3.4309 l 4.349968,2.7972 c 0.376422,-0.8062 0.929473,-1.5517 1.692275,-2.1211 2.270721,-1.6951 5.428167,-1.3854 7.348627,0.5978 l -2.779624,2.0748 10.838721,5.0121 -1.072279,-12.3023 z"
       style="opacity:0.57476633;fill:#000000;fill-opacity:1"
       inkscape:connector-curvature="0" />
    <path
       id="path3907"
       d="m -23.682572,1064.6202 c 2.476756,-0.1145 4.960681,-0.9542 6.906935,-2.4934 1.394607,-1.1029 2.437624,-2.5544 3.118291,-4.1889 l -5.863585,-3.5525 c -0.168925,1.051 -0.638165,2.0544 -1.547615,2.782 -1.587559,1.2703 -4.064993,1.8235 -6.040119,-0.1053 l 2.762568,-2.1107 -12.754682,-5.407 1.635419,14.4781 3.304884,-2.6326 c 2.111532,2.3293 5.293541,3.3787 8.477904,3.2303 z"
       style="opacity:0.34579438;fill:#000000;fill-opacity:1"
       inkscape:connector-curvature="0" />
    <path
       inkscape:connector-curvature="0"
       id="path3920"
       d="m 15.647589,1026.7476 c -2.304183,-0.051 -4.636554,0.6407 -6.6250006,2.125 -1.273572,0.9507 -2.253193,2.1284 -2.9687501,3.4375 l 4.3437507,2.7813 c 0.376422,-0.8062 0.924698,-1.5556 1.6875,-2.125 2.270721,-1.6951 5.42329,-1.3582 7.34375,0.625 l -2.78125,2.0625 10.84375,5 -1.0625,-12.2813 -2.875,2.125 c -2.04577,-2.3871 -4.943728,-3.684 -7.90625,-3.75 z m -12.4375007,9.0938 1.59375,12.2187 2.7500001,-2.25 c 3.8129196,4.0865 10.2273246,4.6129 14.6250006,1.0313 1.232329,-1.0036 2.152859,-2.2245 2.8125,-3.5625 l -4.46875,-2.625 c -0.341962,0.8213 -0.855625,1.5865 -1.59375,2.1875 -2.197087,1.7893 -5.372406,1.6191 -7.375,-0.2813 l 2.6875,-2.1875 -11.0312507,-4.5312 z"
       style="opacity:0.15;fill:#000000;fill-opacity:1" />
  </g>
</svg>
