<?xml version="1.0" encoding="UTF-8" standalone="no"?>
<!-- Created with Inkscape (http://www.inkscape.org/) -->

<svg
   xmlns:dc="http://purl.org/dc/elements/1.1/"
   xmlns:cc="http://creativecommons.org/ns#"
   xmlns:rdf="http://www.w3.org/1999/02/22-rdf-syntax-ns#"
   xmlns:svg="http://www.w3.org/2000/svg"
   xmlns="http://www.w3.org/2000/svg"
   xmlns:xlink="http://www.w3.org/1999/xlink"
   xmlns:sodipodi="http://sodipodi.sourceforge.net/DTD/sodipodi-0.dtd"
   xmlns:inkscape="http://www.inkscape.org/namespaces/inkscape"
   width="120"
   height="20"
   id="svg27960"
   version="1.1"
   inkscape:version="0.48.0 r9654"
   sodipodi:docname="scale.svg">
  <defs
     id="defs27962">
    <linearGradient
       id="linearGradient7024">
      <stop
         style="stop-color:#fffdff;stop-opacity:1;"
         offset="0"
         id="stop7026" />
      <stop
         id="stop7028"
         offset="0.64915252"
         style="stop-color:#e9e9dc;stop-opacity:0.47008547;" />
      <stop
         style="stop-color:#ebe9eb;stop-opacity:0.47843137;"
         offset="1"
         id="stop7030" />
    </linearGradient>
    <linearGradient
       gradientTransform="matrix(0.59809784,0,0,0.59809784,-70.881553,100.2845)"
       gradientUnits="userSpaceOnUse"
       y2="821.10596"
       x2="69.126175"
       y1="455.69241"
       x1="71.44149"
       id="linearGradient6833"
       xlink:href="#linearGradient7024"
       inkscape:collect="always" />
    <linearGradient
       id="linearGradient6835-8">
      <stop
         id="stop6837-0"
         offset="0"
         style="stop-color:#fffdff;stop-opacity:1;" />
      <stop
         style="stop-color:#e9e9dc;stop-opacity:0.47008547;"
         offset="0.55885547"
         id="stop6839-2" />
      <stop
         id="stop6841-6"
         offset="1"
         style="stop-color:#ebe9eb;stop-opacity:0.47843137;" />
    </linearGradient>
    <linearGradient
       gradientTransform="matrix(0.59809784,0,0,0.59809784,-52.612662,120.62528)"
       gradientUnits="userSpaceOnUse"
       y2="845.75171"
       x2="22.549107"
       y1="525.45105"
       x1="25.572601"
       id="linearGradient7014"
       xlink:href="#linearGradient6835-8"
       inkscape:collect="always" />
    <linearGradient
       id="linearGradient6835-3">
      <stop
         id="stop6837-8"
         offset="0"
         style="stop-color:#fffdff;stop-opacity:1;" />
      <stop
         style="stop-color:#e9e9dc;stop-opacity:0.47008547;"
         offset="0.55885547"
         id="stop6839-4" />
      <stop
         id="stop6841-8"
         offset="1"
         style="stop-color:#ebe9eb;stop-opacity:0.47843137;" />
    </linearGradient>
    <linearGradient
       id="linearGradient6835">
      <stop
         id="stop6837"
         offset="0"
         style="stop-color:#ffffff;stop-opacity:1;" />
      <stop
         id="stop6841"
         offset="1"
         style="stop-color:#f0f0f0;stop-opacity:1;" />
    </linearGradient>
    <linearGradient
       inkscape:collect="always"
       xlink:href="#linearGradient6835"
       id="linearGradient14342"
       x1="59.769253"
       y1="1032.5792"
       x2="59.718311"
       y2="1052.3734"
       gradientUnits="userSpaceOnUse"
       gradientTransform="translate(-0.82950491,1.317859)" />
  </defs>
  <sodipodi:namedview
     id="base"
     pagecolor="#ffffff"
     bordercolor="#666666"
     borderopacity="1.0"
     inkscape:pageopacity="0.0"
     inkscape:pageshadow="2"
     inkscape:zoom="7.5452852"
     inkscape:cx="82.664489"
     inkscape:cy="9.5907171"
     inkscape:document-units="px"
     inkscape:current-layer="layer1"
     showgrid="false"
     inkscape:window-width="1181"
     inkscape:window-height="760"
     inkscape:window-x="50"
     inkscape:window-y="150"
     inkscape:window-maximized="0"
     inkscape:snap-global="false" />
  <metadata
     id="metadata27965">
    <rdf:RDF>
      <cc:Work
         rdf:about="">
        <dc:format>image/svg+xml</dc:format>
        <dc:type
           rdf:resource="http://purl.org/dc/dcmitype/StillImage" />
        <dc:title />
      </cc:Work>
    </rdf:RDF>
  </metadata>
  <g
     inkscape:label="Layer 1"
     inkscape:groupmode="layer"
     id="layer1"
     transform="translate(0,-1032.3622)">
    <path
       inkscape:connector-curvature="0"
       id="path14344"
       d="m 114.95979,1033.7442 c -2.63068,-0.1196 -3.47376,1.028 -3.46032,1.7342 l -0.0473,14.7914 c -0.002,0.764 2.04409,1.3204 3.32771,1.3204 1.28361,0 3.20038,-0.8532 3.21059,-1.6171 l 0.19569,-14.643 c -0.31477,-0.7225 -0.19551,-1.5807 -3.22637,-1.5859 z m -7.72527,1.3137 c -2.18057,-0.109 -3.74059,1.1284 -3.72716,1.8347 l -0.19569,13.0805 c -0.0114,0.7639 2.19246,1.9138 3.47607,1.9138 1.2836,0 3.34754,-0.8532 3.35896,-1.6171 l 0.19569,-13.0805 c 0.0171,-0.8313 -0.92729,-2.0224 -3.10787,-2.1314 z m -8.269452,1.5579 c -2.632099,-0.1114 -3.306462,1.0393 -3.301468,1.7456 l 0.08112,11.4733 c 0.0054,0.764 2.064013,1.9038 3.347624,1.9038 1.283616,0 3.346096,-1.0015 3.358976,-1.7654 l -0.10104,-11.7501 c 0.0171,-0.8312 -0.75311,-1.4958 -3.385212,-1.6072 z m -7.843748,1.192 c -2.595807,0.2372 -3.314901,1.3161 -3.30147,2.0223 l -0.195695,10.143 c -0.01474,0.7638 2.537967,1.8147 3.821583,1.8147 1.283607,0 3.184009,-1.3277 3.198746,-2.0915 l 0.05729,-10.143 c 0.01706,-0.8313 -0.984646,-1.9827 -3.580454,-1.7455 z m -7.843749,1.3638 c -1.177401,0.088 -3.3149,1.0771 -3.301471,1.7835 l -0.195695,9.018 c -0.01658,0.7638 2.330357,1.7455 3.613971,1.7455 1.283615,0 3.458987,-0.9817 3.475562,-1.7455 l -0.08112,-8.8796 c 0.01707,-0.8312 -2.126806,-2.0316 -3.511247,-1.9219 z m -7.566934,1.2255 c -1.1774,0.088 -3.622965,1.008 -3.609537,1.7143 l -0.195695,7.8617 c -0.01901,0.7637 2.707628,1.6763 3.991241,1.6763 1.283614,0 2.833713,-0.9818 2.852725,-1.7455 l 0.195695,-7.8617 c 0.0171,-0.8312 -1.849985,-1.7546 -3.234429,-1.6451 z m -8.051362,0.9933 c -1.177399,0.088 -3.41535,1.1085 -3.401925,1.8147 l -0.195695,6.768 c -0.02208,0.7636 2.361615,1.8839 3.645221,1.8839 1.28361,0 3.176664,-0.9127 3.198745,-1.6763 l 0.195695,-7.3908 c 0.0171,-0.8312 -2.057597,-1.5089 -3.442041,-1.3995 z m -7.84375,0.9821 c -1.177399,0.088 -3.415351,0.9701 -3.401925,1.6764 l -0.195695,5.9242 c -0.02522,0.7636 2.361614,1.6763 3.645221,1.6763 1.283607,0 3.173522,-0.9819 3.198745,-1.7455 l 0.126491,-5.7858 c 0.01711,-0.8313 -1.988394,-1.8551 -3.372837,-1.7456 z m -7.636138,0.8371 c -1.177399,0.088 -3.622963,1.0079 -3.609537,1.7143 l -0.195695,5.0492 c -0.02959,0.7634 2.292408,1.6763 3.576016,1.6763 1.283607,0 3.376771,-1.1205 3.406359,-1.8839 l 0.05729,-4.8416 c 0.01711,-0.8313 -1.849987,-1.8237 -3.234433,-1.7143 z m -7.912954,0.7701 c -1.177399,0.088 -3.553759,0.8317 -3.540333,1.5379 l -0.195695,4.4555 c -0.03352,0.7632 2.569226,1.3995 3.852833,1.3995 1.283607,0 3.096018,-0.4979 3.129542,-1.2611 l 0.195695,-4.4555 c 0.01711,-0.8313 -2.057601,-1.7857 -3.442042,-1.6763 z m -7.912954,0.7812 c -1.177401,0.088 -3.484556,0.8318 -3.471129,1.538 l -0.195695,3.6742 c -0.04064,0.7629 2.500022,1.3995 3.783629,1.3995 1.283606,0 3.088907,-0.6366 3.129542,-1.3995 l 0.195695,-3.6742 c 0.01712,-0.8311 -2.057601,-1.6475 -3.442042,-1.538 z m -7.774546,0.5067 c -1.1774,0.088 -3.55376,0.7624 -3.540333,1.4688 l -0.195695,3.2367 c -0.04611,0.7626 2.569227,1.4687 3.852833,1.4687 1.283606,0 3.152638,-0.6369 3.198746,-1.3995 l 0.195695,-3.2367 c 0.01711,-0.8313 -2.126805,-1.6475 -3.511246,-1.538 z m -7.912954,0.3996 c -1.177399,0.088 -3.484554,0.8317 -3.471129,1.5379 l -0.195695,2.768 c -0.05388,0.7621 2.500024,1.3995 3.783629,1.3995 1.283608,0 3.144866,-0.6374 3.198746,-1.3995 l 0.195695,-2.768 c 0.01711,-0.8311 -2.126802,-1.6474 -3.511246,-1.5379 z m -7.875,0.5178 c -1.177399,0.088 -3.0286888,0.9732 -3.0938568,1.6764 l -0.1956947,2.1117 c -0.070495,0.7607 2.1227505,1.2611 3.4063565,1.2611 1.283606,0 3.2287,-0.6388 3.2992,-1.3995 l 0.195695,-2.1117 c 0.01711,-0.8311 -2.227257,-1.6476 -3.6117,-1.538 z m -7.7745445,0.4197 c -1.1773991,0.088 -3.2231372,0.7648 -3.1630622,1.4687 l 0.150326,1.7613 c 0.064965,0.7612 1.8459352,1.5379 3.1295415,1.5379 1.2836071,0 2.7335546,-0.7091 2.8147708,-1.4687 l 0.1956947,-1.8305 c 0.017109,-0.8312 -1.7428284,-1.5782 -3.1272708,-1.4687 z"
       style="font-size:medium;font-style:normal;font-variant:normal;font-weight:normal;font-stretch:normal;text-indent:0;text-align:start;text-decoration:none;line-height:normal;letter-spacing:normal;word-spacing:normal;text-transform:none;direction:ltr;block-progression:tb;writing-mode:lr-tb;text-anchor:start;baseline-shift:baseline;opacity:0.23706898;color:#000000;fill:#000000;fill-opacity:1;stroke:none;stroke-width:0.76269472;marker:none;visibility:visible;display:inline;overflow:visible;enable-background:accumulate;font-family:Sans;-inkscape-font-specification:Sans"
       sodipodi:nodetypes="ccssscczssscczzssscczzssscczcsssccccsssccccsssccccsssccccsssccccsssccccsssccccsssccccsssccccsssccccsssccc" />
    <path
       style="font-size:medium;font-style:normal;font-variant:normal;font-weight:normal;font-stretch:normal;text-indent:0;text-align:start;text-decoration:none;line-height:normal;letter-spacing:normal;word-spacing:normal;text-transform:none;direction:ltr;block-progression:tb;writing-mode:lr-tb;text-anchor:start;baseline-shift:baseline;color:#000000;fill:url(#linearGradient14342);fill-opacity:1;stroke:none;stroke-width:0;marker:none;visibility:visible;display:inline;overflow:visible;enable-background:accumulate;font-family:Sans;-inkscape-font-specification:Sans"
       d="m 113.96147,1033.9186 c -1.17739,0.088 -2.13844,0.7626 -2.125,1.4688 l 0,13.4687 c 0,0.764 1.15388,1.4688 2.4375,1.4688 1.28361,0 2.46875,-0.7048 2.46875,-1.4688 l 0,-13.4687 c 0.017,-0.8312 -1.39679,-1.5784 -2.78125,-1.4688 z m -7.84375,1.5625 c -1.17741,0.088 -2.13843,0.7312 -2.125,1.4375 l 0,11.9375 c 0,0.764 1.15389,1.4688 2.4375,1.4688 1.2836,0 2.46875,-0.7048 2.46875,-1.4688 l 0,-11.9375 c 0.0171,-0.8313 -1.39682,-1.5468 -2.78125,-1.4375 z m -7.843751,1.4375 c -1.177402,0.088 -2.138421,0.7626 -2.125,1.4688 l 0,10.4687 c 0,0.764 1.153901,1.4688 2.4375,1.4688 1.283631,0 2.468751,-0.7048 2.468751,-1.4688 l 0,-10.4687 c 0.0171,-0.8312 -1.39679,-1.5784 -2.781251,-1.4688 z m -7.84375,1.5 c -1.177401,0.088 -2.138431,0.7626 -2.125,1.4688 l 0,8.9687 c 0,0.764 1.153884,1.4688 2.4375,1.4688 1.283607,0 2.46875,-0.7048 2.46875,-1.4688 l 0,-8.9687 c 0.01706,-0.8313 -1.396804,-1.5784 -2.78125,-1.4688 z m -7.84375,1.125 c -1.177401,0.088 -2.138429,0.7624 -2.125,1.4688 l 0,7.8437 c 0,0.764 1.153886,1.4688 2.4375,1.4688 1.283615,0 2.46875,-0.7048 2.46875,-1.4688 l 0,-7.8437 c 0.01707,-0.8312 -1.396811,-1.5785 -2.78125,-1.4688 z m -7.84375,1.1563 c -1.1774,0.088 -2.138428,0.7624 -2.125,1.4687 l 0,6.6875 c 0,0.764 1.153887,1.4688 2.4375,1.4688 1.283614,0 2.46875,-0.7048 2.46875,-1.4688 l 0,-6.6875 c 0.0171,-0.8312 -1.396806,-1.5782 -2.78125,-1.4687 z m -7.84375,1.0937 c -1.177399,0.088 -2.138425,0.7313 -2.125,1.4375 l 0,5.625 c 0,0.764 1.153894,1.4688 2.4375,1.4688 1.28361,0 2.46875,-0.7048 2.46875,-1.4688 l 0,-5.625 c 0.0171,-0.8312 -1.396806,-1.5469 -2.78125,-1.4375 z m -7.84375,0.8438 c -1.177399,0.088 -2.138426,0.7624 -2.125,1.4687 l 0,4.75 c 0,0.764 1.153893,1.4688 2.4375,1.4688 1.283607,0 2.46875,-0.7048 2.46875,-1.4688 l 0,-4.75 c 0.01711,-0.8313 -1.396807,-1.5782 -2.78125,-1.4687 z m -7.84375,0.875 c -1.177399,0.088 -2.138426,0.7623 -2.125,1.4687 l 0,3.875 c 0,0.764 1.153892,1.4688 2.4375,1.4688 1.283607,0 2.4375,-0.7048 2.4375,-1.4688 l 0,-3.875 c 0.01711,-0.8313 -1.365558,-1.5781 -2.75,-1.4687 z m -7.84375,0.5937 c -1.177399,0.088 -2.138426,0.7313 -2.125,1.4375 l 0,3.3125 c 0,0.764 1.153893,1.4688 2.4375,1.4688 1.283607,0 2.4375,-0.7048 2.4375,-1.4688 l 0,-3.3125 c 0.01711,-0.8313 -1.365559,-1.5469 -2.75,-1.4375 z m -7.84375,0.7813 c -1.177401,0.088 -2.169677,0.7313 -2.15625,1.4375 l 0,2.5312 c 0,0.764 1.185143,1.4688 2.46875,1.4688 1.283606,0 2.4375,-0.7048 2.4375,-1.4688 l 0,-2.5312 c 0.01712,-0.8311 -1.365559,-1.547 -2.75,-1.4375 z m -7.34375,0.4062 c -0.170665,-0.011 -0.326945,0.018 -0.5,0.031 -1.1774,0.088 -2.169677,0.7311 -2.15625,1.4375 l 0,2.0937 c 0,0.764 1.185144,1.4688 2.46875,1.4688 1.283606,0 2.4375,-0.7048 2.4375,-1.4688 l 0,-2.0937 c 0.01497,-0.7274 -1.055346,-1.3896 -2.25,-1.4688 z m -7.84375,0.4688 c -0.170665,-0.011 -0.326944,0.017 -0.5,0.031 -1.177399,0.088 -2.169675,0.7313 -2.15625,1.4375 l 0,1.625 c 0,0.764 1.185145,1.4688 2.46875,1.4688 1.283608,0 2.4375,-0.7048 2.4375,-1.4688 l 0,-1.625 c 0.01497,-0.7272 -1.055344,-1.3896 -2.25,-1.4687 z m -8.34375,0.6562 c -1.177399,0.088 -2.1696762,0.7627 -2.1562502,1.4688 l 0,0.9687 c 0,0.764 1.1851442,1.4688 2.4687502,1.4688 1.283606,0 2.4375,-0.7048 2.4375,-1.4688 l 0,-0.9687 c 0.01711,-0.8311 -1.365557,-1.5784 -2.75,-1.4688 z m -7.8437503,0.3125 c -1.1773991,0.088 -2.1696761,0.7312 -2.15625,1.4375 l 0,0.6875 c 0,0.764 1.1851437,1.4688 2.46875,1.4688 1.2836071,0 2.4375,-0.7048 2.4375,-1.4688 l 0,-0.6875 c 0.017109,-0.8312 -1.3655576,-1.547 -2.75,-1.4375 z"
       id="use39802"
       inkscape:connector-curvature="0" />
    <path
       style="font-size:medium;font-style:normal;font-variant:normal;font-weight:normal;font-stretch:normal;text-indent:0;text-align:start;text-decoration:none;line-height:normal;letter-spacing:normal;word-spacing:normal;text-transform:none;direction:ltr;block-progression:tb;writing-mode:lr-tb;text-anchor:start;baseline-shift:baseline;opacity:0.15;color:#000000;fill:#000000;fill-opacity:1;stroke:none;stroke-width:0.76269472;marker:none;visibility:visible;display:inline;overflow:visible;enable-background:accumulate;font-family:Sans;-inkscape-font-specification:Sans"
       d="m 114.94437,1034.7448 c -1.17739,0.088 -2.13844,0.7313 -2.125,1.4375 l 0,13.4688 c 0,0.764 1.15388,1.4687 2.4375,1.4687 1.28361,0 2.46875,-0.7047 2.46875,-1.4687 l 0,-13.4688 c 0.017,-0.8312 -1.39679,-1.5471 -2.78125,-1.4375 z m -7.84375,1.5313 c -1.17741,0.088 -2.13843,0.7624 -2.125,1.4687 l 0,11.9063 c 0,0.764 1.15389,1.4687 2.4375,1.4687 1.2836,0 2.46875,-0.7047 2.46875,-1.4687 l 0,-11.9063 c 0.0171,-0.8313 -1.39682,-1.578 -2.78125,-1.4687 z m -7.84376,1.4687 c -1.177402,0.088 -2.138421,0.7626 -2.125,1.4688 l 0,10.4375 c 0,0.764 1.153886,1.4687 2.4375,1.4687 1.28362,0 2.46875,-0.7047 2.46875,-1.4687 l 0,-10.4375 c 0.0171,-0.8312 -1.3968,-1.5784 -2.78125,-1.4688 z m -7.84375,1.4688 c -1.177401,0.088 -2.138431,0.7625 -2.125,1.4687 l 0,8.9688 c 0,0.764 1.153884,1.4687 2.4375,1.4687 1.283607,0 2.4375,-0.7047 2.4375,-1.4687 l 0,-8.9688 c 0.01706,-0.8313 -1.365554,-1.5783 -2.75,-1.4687 z m -7.84375,1.1562 c -1.177401,0.088 -2.138429,0.7311 -2.125,1.4375 l 0,7.8438 c 0,0.764 1.153886,1.4687 2.4375,1.4687 1.283615,0 2.4375,-0.7047 2.4375,-1.4687 l 0,-7.8438 c 0.01707,-0.8312 -1.365561,-1.5472 -2.75,-1.4375 z m -7.84375,1.1563 c -1.1774,0.088 -2.169678,0.7312 -2.15625,1.4375 l 0,6.6875 c 0,0.764 1.185137,1.4687 2.46875,1.4687 1.283614,0 2.4375,-0.7047 2.4375,-1.4687 l 0,-6.6875 c 0.0171,-0.8312 -1.365556,-1.547 -2.75,-1.4375 z m -7.84375,1.0625 c -1.177399,0.088 -2.169675,0.7625 -2.15625,1.4687 l 0,5.5938 c 0,0.764 1.185144,1.4687 2.46875,1.4687 1.28361,0 2.4375,-0.7047 2.4375,-1.4687 l 0,-5.5938 c 0.0171,-0.8312 -1.365556,-1.5781 -2.75,-1.4687 z m -7.84375,0.8437 c -1.177399,0.088 -2.169676,0.7625 -2.15625,1.4688 l 0,4.75 c 0,0.764 1.185143,1.4687 2.46875,1.4687 1.283607,0 2.4375,-0.7047 2.4375,-1.4687 l 0,-4.75 c 0.01711,-0.8313 -1.365557,-1.5783 -2.75,-1.4688 z m -7.84375,0.9063 c -1.177399,0.088 -2.169676,0.7311 -2.15625,1.4375 l 0,3.875 c 0,0.764 1.185142,1.4687 2.46875,1.4687 1.283607,0 2.4375,-0.7047 2.4375,-1.4687 l 0,-3.875 c 0.01711,-0.8313 -1.365558,-1.5469 -2.75,-1.4375 z m -7.84375,0.5625 c -1.177399,0.088 -2.169676,0.7625 -2.15625,1.4687 l 0,3.2813 c 0,0.764 1.185143,1.4687 2.46875,1.4687 1.283607,0 2.4375,-0.7047 2.4375,-1.4687 l 0,-3.2813 c 0.01711,-0.8313 -1.365559,-1.5781 -2.75,-1.4687 z m -7.84375,0.7812 c -1.177401,0.088 -2.169677,0.7626 -2.15625,1.4688 l 0,2.5 c 0,0.764 1.185143,1.4687 2.46875,1.4687 1.283606,0 2.4375,-0.7047 2.4375,-1.4687 l 0,-2.5 c 0.01712,-0.8311 -1.365559,-1.5783 -2.75,-1.4688 z m -7.84375,0.4375 c -1.1774,0.088 -2.169677,0.7624 -2.15625,1.4688 l 0,2.0625 c 0,0.764 1.185144,1.4687 2.46875,1.4687 1.283606,0 2.4375,-0.7047 2.4375,-1.4687 l 0,-2.0625 c 0.01711,-0.8313 -1.365559,-1.5783 -2.75,-1.4688 z m -7.84375,0.4688 c -1.177399,0.088 -2.169675,0.7625 -2.15625,1.4687 l 0,1.5938 c 0,0.764 1.185145,1.4687 2.46875,1.4687 1.283608,0 2.4375,-0.7047 2.4375,-1.4687 l 0,-1.5938 c 0.01711,-0.8311 -1.365556,-1.5782 -2.75,-1.4687 z m -7.875001,0.6562 c -1.177398,0.088 -2.138425,0.7627 -2.124999,1.4688 l 0,0.9375 c 0,0.764 1.153894,1.4687 2.437499,1.4687 1.283607,0 2.468751,-0.7047 2.468751,-1.4687 l 0,-0.9375 c 0.01711,-0.8311 -1.396807,-1.5784 -2.781251,-1.4688 z m -7.8437485,0.2813 c -1.1773992,0.088 -2.1384261,0.7624 -2.125,1.4687 l 0,0.6563 c 0,0.764 1.1538936,1.4687 2.4375,1.4687 1.2836071,0 2.46875,-0.7047 2.46875,-1.4687 l 0,-0.6563 c 0.017109,-0.8312 -1.3968076,-1.5782 -2.78125,-1.4687 z"
       id="path40003"
       inkscape:connector-curvature="0" />
  </g>
</svg>
